<?xml version="1.0" encoding="UTF-8"?>
<svg xmlns="http://www.w3.org/2000/svg" version="1.1" viewBox="0 0 118.3 98.6">
  <defs>
    <style>
      .cls-1 {
        fill: #000;
      }

      .cls-1, .cls-2 {
        stroke-width: 0px;
      }

      .cls-2 {
        fill: #231916;
      }
    </style>
  </defs>
  <g>
    <g>
      <path class="cls-2" d="M42.7,38.8c-.4-.5-1.2-.6-1.7-.1-.4.4-.5,1-.3,1.5l9.6,13.7.6-3.2-8.3-11.8Z"/>
      <path class="cls-2" d="M81.6,10.8c-.6-.3-1.3-.1-1.7.5,0,.1-.1.2-.1.3l-11.1,64.1-14-19.8-1.8-2.6-.7,3.7-3.2,18.5-19.4-27.5c-.4-.5-1.2-.6-1.7-.1-.4.4-.5,1-.3,1.5l20.6,29.2c.3.5,1,.7,1.6.6.6-.1,1.1-.6,1.2-1.2l3.2-18.7,13.8,19.5c.5.7,1.4.9,2.1.4.3-.2.6-.6.6-1l11.4-66.1c0-.5-.1-.9-.5-1.2Z"/>
    </g>
    <path class="cls-2" d="M59.6,32.9c0-.5-.1-.9-.5-1.2"/>
  </g>
  <g>
    <g>
      <path class="cls-1" d="M5.7,95.1c0,1.7-.9,2.5-2.6,2.5s-2.5-.8-2.5-2.4v-3.2h1.4v3.2c0,.9.4,1.3,1.2,1.3s1.1-.4,1.1-1.3v-3.3h1.4v3.2Z"/>
      <path class="cls-1" d="M21.1,92v1h-.5v3.6h.5v1h-2.4v-1h.5v-3.6h-.5v-1h2.4Z"/>
      <path class="cls-1" d="M39.1,95.1c0,1.7-.9,2.5-2.6,2.5s-2.5-.8-2.5-2.4v-3.2h1.4v3.2c0,.9.4,1.3,1.2,1.3s1.1-.4,1.1-1.3v-3.3h1.4v3.2Z"/>
      <path class="cls-1" d="M57.6,97.5h-1.6l-1.1-1.8c0,0,0-.2-.1-.4h0c0,0,0,.2-.1.4l-1.1,1.8h-1.7l2-2.8-1.8-2.8h1.7l.9,1.7c0,.1.1.3.2.5h0c0-.1,0-.3.2-.5l1-1.7h1.5l-1.8,2.8,1.9,2.8Z"/>
      <path class="cls-1" d="M83.8,97.5h-3.7v-5.6h1.4v4.5h2.3v1Z"/>
      <path class="cls-1" d="M102.2,97.5h-1.5l-.4-1.2h-2.2l-.4,1.2h-1.5l2.2-5.6h1.6l2.2,5.6ZM99.9,95.3l-.7-1.9c0-.1,0-.3-.1-.5h0c0,.2,0,.3-.1.5l-.7,1.9h1.6Z"/>
      <path class="cls-1" d="M112.7,97.5v-5.6h2.2c.7,0,1.2.1,1.6.3s.6.5.6,1-.1.6-.3.8c-.2.2-.5.4-.9.5h0c.4,0,.8.2,1,.5s.4.5.4.9c0,.5-.2.9-.6,1.2s-1,.4-1.7.4h-2.4ZM114,92.9v1.3h.6c.3,0,.5,0,.7-.2.2-.1.2-.3.2-.5,0-.4-.3-.6-1-.6h-.5ZM114,95.1v1.5h.8c.3,0,.6,0,.8-.2.2-.1.3-.3.3-.6s0-.4-.3-.5-.4-.2-.7-.2h-.8Z"/>
    </g>
  </g>
</svg>