<?xml version="1.0" standalone="no"?>
<!DOCTYPE svg PUBLIC "-//W3C//DTD SVG 1.1//EN" "http://www.w3.org/Graphics/SVG/1.1/DTD/svg11.dtd" >
<svg>
<metadata>
Created by FontForge 20090914 at Thu Dec 12 06:20:21 2019
 By www-data
(c) 2000-2012 Typodermic Fonts Inc. See attached license agreement. If agreement is missing visit typodermicfonts.com for more info.
</metadata>
<defs>
<font id="Almonte-Regular" horiz-adv-x="468" >
  <font-face 
    font-family="Almonte"
    font-weight="400"
    font-stretch="normal"
    units-per-em="1000"
    panose-1="2 0 4 0 0 0 0 0 0 0"
    ascent="766"
    descent="-234"
    x-height="686.998"
    cap-height="857"
    bbox="-24 -188.002 1275 1011"
    underline-thickness="20"
    underline-position="-123"
    unicode-range="U+0020-U+E000"
  />
<missing-glyph horiz-adv-x="452" 
d="M129 0c-64.667 0 -97 28 -97 84v488c0 56.667 32.333 85 97 85h193c65.333 0 98 -28.333 98 -85v-488c0 -56 -32.667 -84 -98 -84h-193zM368 572c0 26 -15.333 39 -46 39h-193c-30.667 0 -46 -13 -46 -39v-488c0 -26 15.333 -39 46 -39h193c30.667 0 46 13 46 39v488z
" />
    <glyph glyph-name=".notdef" horiz-adv-x="452" 
d="M129 0c-64.667 0 -97 28 -97 84v488c0 56.667 32.333 85 97 85h193c65.333 0 98 -28.333 98 -85v-488c0 -56 -32.667 -84 -98 -84h-193zM368 572c0 26 -15.333 39 -46 39h-193c-30.667 0 -46 -13 -46 -39v-488c0 -26 15.333 -39 46 -39h193c30.667 0 46 13 46 39v488z
" />
    <glyph glyph-name="space" unicode=" " horiz-adv-x="227" 
 />
    <glyph glyph-name="exclam" unicode="!" horiz-adv-x="251" 
d="M208 97c0 -26.667 -7.66699 -49.501 -23 -68.501s-35.666 -28.5 -60.999 -28.5c-12.667 0 -24.5 2.66699 -35.5 8s-20.5 12.5 -28.5 21.5s-14.167 19.333 -18.5 31s-6.5 23.834 -6.5 36.501s2.16699 25 6.5 37s10.5 22.333 18.5 31s17.5 15.667 28.5 21s22.833 8 35.5 8
c23.333 0 43.166 -9.16699 59.499 -27.5s24.5 -41.5 24.5 -69.5zM208 781.999c0 -21.333 -0.665039 -41.668 -1.99805 -61.001s-3.33301 -39.5 -6 -60.5l-9 -68.5l-11 -85c-4 -32 -8.16699 -68.5 -12.5 -109.5s-8.5 -88.5 -12.5 -142.5h-67
c-5.33301 51.333 -9.83301 97.833 -13.5 139.5s-7.83398 79.167 -12.501 112.5c-2 14.667 -4.66699 30.167 -8 46.5s-6.33301 35.333 -9 57s-5 46.334 -7 74.001s-3 60.167 -3 97.5c0 26.667 7.83301 48.5 23.5 65.5s36.5 25.5 62.5 25.5c25.333 0 46.166 -8.5 62.499 -25.5
s24.5 -38.833 24.5 -65.5z" />
    <glyph glyph-name="quotedbl" unicode="&#x22;" horiz-adv-x="331" 
d="M171 782c0 -16 -2.33398 -31.832 -7.00098 -47.499s-10 -31.5 -16 -47.5s-12 -33 -18 -51s-10 -37.667 -12 -59h-24l-9.5 51.5c-3 16.333 -7.16699 31.833 -12.5 46.5l-20 52c-7.33301 19.333 -11 37.666 -11 54.999c0 26.667 5.83301 48.5 17.5 65.5
s27.167 25.5 46.5 25.5c20.667 0 36.834 -8.83301 48.501 -26.5s17.5 -39.167 17.5 -64.5zM310.999 782.001c0 -18 -3.66895 -36.333 -11.002 -55l-21 -54c-9.33301 -26.667 -16.666 -58.667 -21.999 -96h-23c-2.66699 18 -5.66699 35.167 -9 51.5
s-7.66602 31.833 -12.999 46.5l-21 52c-6.66699 20 -10 38.333 -10 55c0 27.333 5.66699 49.333 17 66s27 25 47 25s36 -8.83301 48 -26.5s18 -39.167 18 -64.5z" />
    <glyph glyph-name="numbersign" unicode="#" horiz-adv-x="558" 
d="M201 269h126l37 175h-128zM381 270h105v-71h-118l-34 -157h-53l32 157h-125l-33 -157h-54l31 157h-100v71h115l34 173h-108v71h124l28 154h56l-29 -154h124l32 154h54l-30 -154h95v-71h-110z" />
    <glyph glyph-name="dollar" unicode="$" horiz-adv-x="466" 
d="M432 289c0 -23.333 -4 -45.498 -12 -66.498s-19.167 -40 -33.5 -57s-31.333 -31.333 -51 -43s-41.167 -19.5 -64.5 -23.5l6 -42.5c1.33301 -9.66699 2 -14.834 2 -15.501c0 -21.333 -13.667 -32 -41 -32c-26.667 0 -40 10.667 -40 32
c0 0.666992 0.666992 5.83398 2 15.501l6 42.5c-23.333 4 -44.666 11.667 -63.999 23s-36.333 25.5 -51 42.5s-26 36.167 -34 57.5s-12 43.666 -12 66.999v58h172v-58c0 -13.333 7 -20 21 -20s21 6.66699 21 20c0 36.667 -18 67.667 -54 93l-104 71
c-37.333 35.333 -56 83.666 -56 144.999c0 24 4.16699 46.5 12.5 67.5s19.666 40 33.999 57s31.166 31.167 50.499 42.5s40.333 19.333 63 24c-2.66699 17.333 -4.5 30.666 -5.5 39.999s-1.5 14.333 -1.5 15c0 21.333 13.333 32 40 32c27.333 0 41 -10.667 41 -32
c0 -0.666992 -0.5 -5.66699 -1.5 -15s-2.83301 -22.666 -5.5 -39.999c22.667 -4.66699 43.834 -12.834 63.501 -24.501s36.667 -26 51 -43s25.5 -36.167 33.5 -57.5s12 -43.333 12 -66v-57h-173v57c0 13.333 -7 20 -21 20s-21 -6.66699 -21 -20c0 -44 18.667 -77 56 -99
l103 -62c37.333 -33.333 56 -82.666 56 -147.999z" />
    <glyph glyph-name="percent" unicode="%" horiz-adv-x="462" 
d="M350 279c0 8.66699 -3.66699 13 -11 13s-11 -4.33301 -11 -13v-171c0 -7.33301 3.66699 -11 11 -11s11 3.66699 11 11v171zM149 747c0 8 -4 12 -12 12s-12 -4 -12 -12v-170c0 -8 4 -12 12 -12s12 4 12 12v170zM449 108c0 -15.333 -3.00098 -29.499 -9.00098 -42.499
s-14 -24.333 -24 -34s-21.667 -17.334 -35 -23.001s-27.333 -8.5 -42 -8.5c-15.333 -0 -29.666 2.83301 -42.999 8.5s-25 13.334 -35 23.001s-17.833 21 -23.5 34s-8.5 27.167 -8.5 42.5v171c0 15.333 3 29.666 9 42.999s14 25 24 35s21.667 17.833 35 23.5
s27.333 8.5 42 8.5s28.667 -3 42 -9s25 -14 35 -24s18 -21.667 24 -35s9 -27.333 9 -42v-171zM395.999 857.001l-282 -857h-33l285 857h30zM245.999 577.001c0 -15.333 -2.83398 -29.5 -8.50098 -42.5s-13.5 -24.5 -23.5 -34.5s-21.667 -17.833 -35 -23.5
s-27.333 -8.5 -42 -8.5c-15.333 0 -29.666 2.83301 -42.999 8.5s-25 13.5 -35 23.5s-17.833 21.5 -23.5 34.5s-8.5 27.167 -8.5 42.5v170c0 15.333 3 29.666 9 42.999s14 25 24 35s21.667 17.833 35 23.5s27.333 8.5 42 8.5s28.667 -2.83301 42 -8.5s25 -13.5 35 -23.5
s17.833 -21.667 23.5 -35s8.5 -27.666 8.5 -42.999v-170z" />
    <glyph glyph-name="ampersand" unicode="&#x26;" horiz-adv-x="558" 
d="M246 245l-40 75.999c-15.333 -13.333 -23 -39.666 -23 -78.999c0 -46 11 -69 33 -69c10.667 0 18.667 9.66699 24 29zM244 648.999c0 23.333 -9.33301 35 -28 35c-18 0 -27 -9.66699 -27 -29c0 -22.667 9 -44.334 27 -65.001c18.667 12.667 28 32.334 28 59.001z
M544 -0.000976562l-155.999 0.00292969l-55 90c-3.33301 -11.333 -9 -22.333 -17 -33s-17.333 -20.334 -28 -29.001s-22.334 -15.5 -35.001 -20.5s-25 -7.5 -37 -7.5c-42 0 -75.833 7.66699 -101.5 23s-45.5 35.666 -59.5 60.999s-23.333 54.333 -28 87s-7 66.667 -7 102
c0 106 24.667 182.667 74 230c-24 40.667 -36 90.667 -36 150c0 62 14.167 111.5 42.5 148.5s66.833 55.5 115.5 55.5c22 0 42.5 -4.5 61.5 -13.5s35.5 -21.5 49.5 -37.5s25 -34.833 33 -56.5s12 -45.167 12 -70.5c0 -76.667 -32 -143.334 -96 -200.001l43 -73l23 37
l109 -64l-55 -112z" />
    <glyph glyph-name="quotesingle" unicode="'" horiz-adv-x="177" 
d="M162 782c0 -16 -2.33398 -31.832 -7.00098 -47.499s-10 -31.667 -16 -48l-18 -51.5c-6 -18 -10.333 -37.333 -13 -58h-23l-9.5 51.5c-3 16.333 -7.16699 31.833 -12.5 46.5l-20 52c-7.33301 19.333 -11 37.666 -11 54.999c0 26.667 5.83301 48.5 17.5 65.5
s27.167 25.5 46.5 25.5c20.667 0 36.834 -8.83301 48.501 -26.5s17.5 -39.167 17.5 -64.5z" />
    <glyph glyph-name="parenleft" unicode="(" horiz-adv-x="350" 
d="M195 -173c-100 168.667 -149.999 349 -149.999 541c0 191.333 50 372 150 542h108c-54.667 -76 -95.834 -159.333 -123.501 -250s-41.5 -188 -41.5 -292c0 -186 55.333 -366.333 166 -541h-109z" />
    <glyph glyph-name="parenright" unicode=")" horiz-adv-x="348" 
d="M43 -173c30 46 55.6689 90.333 77.002 133s38.666 85.5 51.999 128.5s23 87.333 29 133s9 94.5 9 146.5c0 54 -3.33301 104.667 -10 152s-16.834 93 -30.501 137s-31 86.667 -52 128s-45.833 83 -74.5 125h108c52 -86.667 90.167 -174.167 114.5 -262.5
s36.5 -181.5 36.5 -279.5c0 -98.667 -12.167 -192 -36.5 -280s-62.5 -175 -114.5 -261h-108z" />
    <glyph glyph-name="asterisk" unicode="*" horiz-adv-x="397" 
d="M374 663l-14 -63l-107 26l15 -110l-65 -6l-9 110l-100 -47l-26 59l103 41l-77 82l48 43l73 -85l53 97l55 -31l-59 -95z" />
    <glyph glyph-name="plus" unicode="+" horiz-adv-x="381" 
d="M370 342h-83v-88h-173v88h-79v173h79v87h173v-87h83v-173z" />
    <glyph glyph-name="comma" unicode="," horiz-adv-x="190" 
d="M181 88c0 -44 -10.333 -80.166 -31 -108.499s-49.334 -44.833 -86.001 -49.5c13.333 13.333 20 28 20 44c0 6 -2.5 15 -7.5 27l-16.5 39c-6 14 -11.5 27.5 -16.5 40.5s-7.5 23.5 -7.5 31.5c0 21.333 7.33301 39.666 22 54.999s32.334 23 53.001 23
c46.667 0 70 -34 70 -102z" />
    <glyph glyph-name="hyphen" unicode="-" horiz-adv-x="381" 
d="M370 342h-335v173h335v-173z" />
    <glyph glyph-name="period" unicode="." horiz-adv-x="201" 
d="M191 97c0 -26 -7.5 -48.668 -22.5 -68.001s-35.5 -29 -61.5 -29c-12.667 0 -24.5 2.66699 -35.5 8s-20.5 12.5 -28.5 21.5s-14.167 19.333 -18.5 31s-6.5 23.834 -6.5 36.501s2.16699 25 6.5 37s10.5 22.333 18.5 31s17.5 15.667 28.5 21s22.833 8 35.5 8
c26 0 46.5 -9.5 61.5 -28.5s22.5 -41.833 22.5 -68.5z" />
    <glyph glyph-name="slash" unicode="/" horiz-adv-x="366" 
d="M355 857l-282 -857h-78l285 857h75z" />
    <glyph glyph-name="zero" unicode="0" 
d="M251 663c0 14 -6.66699 21 -20 21c-14 0 -21 -7 -21 -21v-470c0 -13.333 7 -20 21 -20c13.333 0 20 6.66699 20 20v470zM424 193c0 -26 -5 -50.667 -15 -74s-23.833 -43.833 -41.5 -61.5s-38.167 -31.667 -61.5 -42s-48.333 -15.5 -75 -15.5
c-27.333 0 -52.666 5 -75.999 15s-43.833 23.833 -61.5 41.5s-31.5 38.167 -41.5 61.5s-15 48.333 -15 75v470c0 27.333 5.16699 52.833 15.5 76.5s24.333 44.167 42 61.5s38.167 31 61.5 41s48.333 15 75 15c26 0 50.833 -5.16699 74.5 -15.5s44.167 -24.166 61.5 -41.499
s31.166 -37.833 41.499 -61.5s15.5 -48.834 15.5 -75.501v-470z" />
    <glyph glyph-name="one" unicode="1" horiz-adv-x="346" 
d="M295 0h-173v628h-62l1 173c22.667 0 38.5 3.66699 47.5 11s13.5 22.333 13.5 45h173v-857z" />
    <glyph glyph-name="two" unicode="2" horiz-adv-x="473" 
d="M424 0l-386.999 -0.00292969v193c0 54 18.667 114.333 56 181c1.33301 4.66699 35.333 57.334 102 158.001c37.333 56.667 56 100.334 56 131.001c0 14 -6.66699 21 -20 21c-14 0 -21 -7 -21 -21v-56h-173v56c0 27.333 5.16699 52.833 15.5 76.5s24.333 44.167 42 61.5
s38.167 31 61.5 41s48.333 15 75 15c26 0 50.833 -5.16699 74.5 -15.5s44.167 -24.166 61.5 -41.499s31.166 -37.833 41.499 -61.5s15.5 -48.834 15.5 -75.501c0 -52 -18.667 -111.667 -56 -179l-102 -161c-37.333 -59.333 -56 -102.666 -56 -129.999v-20h214v-173z" />
    <glyph glyph-name="three" unicode="3" 
d="M424 193c0 -26 -5 -50.668 -15 -74.001s-23.833 -43.833 -41.5 -61.5s-38.167 -31.667 -61.5 -42s-48.333 -15.5 -75 -15.5c-27.333 0 -52.666 5 -75.999 15s-43.833 23.833 -61.5 41.5s-31.5 38.167 -41.5 61.5s-15 48.333 -15 75v41h173v-3.5
c0 -1.66699 -0.333008 -4.16699 -1 -7.5v-15c0 -23.333 7.33301 -35 22 -35c13.333 0 20 6.66699 20 20v119c0 20 -31.333 30 -94 30h-6v173h33c44.667 0 67 7.33301 67 22v126c0 14 -6.66699 21 -20 21c-14 0 -21 -7 -21 -21v-67h-173v67
c0 27.333 5.16699 52.833 15.5 76.5s24.333 44.167 42 61.5s38.167 31 61.5 41s48.333 15 75 15c26 0 50.833 -5.16699 74.5 -15.5s44.167 -24.166 61.5 -41.499s31.166 -37.833 41.499 -61.5s15.5 -48.834 15.5 -75.501v-152c0 -31.333 -14.667 -59 -44 -83
c29.333 -23.333 44 -47.666 44 -72.999v-162z" />
    <glyph glyph-name="four" unicode="4" horiz-adv-x="481" 
d="M452 342h-41v-342h-173v342h-213v515h173v-342h40v342h173v-342h41v-173z" />
    <glyph glyph-name="five" unicode="5" horiz-adv-x="434" 
d="M424 193c0 -26 -4.99805 -50.668 -14.998 -74.001s-23.833 -43.833 -41.5 -61.5s-38.167 -31.667 -61.5 -42s-48.333 -15.5 -75 -15.5c-27.333 0 -52.666 5 -75.999 15s-43.833 23.833 -61.5 41.5s-31.5 38.167 -41.5 61.5s-15 48.333 -15 75v120h173v-120
c0 -13.333 7 -20 21 -20c13.333 0 20 6.66699 20 20v236c0 14 -6.66699 21 -20 21c-14.667 0 -22 -11.333 -22 -34v-13c0.666992 -3.33301 1 -6.66602 1 -9.99902h-173v464h365v-173h-192v-73c17.333 8.66699 36 13 56 13c21.333 0 41.666 -5.33301 60.999 -16
s36.166 -25 50.499 -43s25.666 -38.833 33.999 -62.5s12.5 -48.167 12.5 -73.5v-236z" />
    <glyph glyph-name="six" unicode="6" 
d="M251 374c0 13.333 -6.66699 20 -20 20c-14 0 -21 -8.66699 -21 -26v-175c0 -13.333 7 -20 21 -20c13.333 0 20 6.66699 20 20v181zM424 193c0 -26 -4.99902 -50.6689 -14.999 -74.002s-23.833 -43.833 -41.5 -61.5s-38.167 -31.667 -61.5 -42s-48.333 -15.5 -75 -15.5
c-27.333 0 -52.666 5 -75.999 15s-43.833 23.833 -61.5 41.5s-31.5 38.167 -41.5 61.5s-15 48.333 -15 75v470c0 27.333 5.16699 52.833 15.5 76.5s24.333 44.167 42 61.5s38.167 31 61.5 41s48.333 15 75 15c26 0 50.833 -5.16699 74.5 -15.5s44.167 -24.166 61.5 -41.499
s31.166 -37.833 41.499 -61.5s15.5 -48.834 15.5 -75.501v-67h-173v67c0 14 -6.66699 21 -20 21c-14 0 -21 -7 -21 -21v-97c3.33301 0.666992 6.66602 1 9.99902 1h11c26 0 50.667 -5.16699 74 -15.5s43.833 -24.166 61.5 -41.499s31.667 -37.666 42 -60.999
s15.5 -48.333 15.5 -75v-181z" />
    <glyph glyph-name="seven" unicode="7" horiz-adv-x="455" 
d="M243 0h-173l161 684h-197v173h386v-116z" />
    <glyph glyph-name="eight" unicode="8" 
d="M251 322c0 12.667 -7.33301 19 -22 19c-12.667 0 -19 -6.33301 -19 -19v-129c0 -13.333 7 -20 21 -20c13.333 0 20 6.66699 20 20v129zM251 663c0 14 -6.66699 21 -20 21c-14 0 -21 -7 -21 -21v-129c0 -12.667 7.33301 -19 22 -19c12.667 0 19 6.33301 19 19v129z
M424 193c0 -26 -5 -50.6689 -15 -74.002s-23.833 -43.833 -41.5 -61.5s-38.167 -31.667 -61.5 -42s-48.333 -15.5 -75 -15.5c-27.333 0 -52.666 5 -75.999 15s-43.833 23.833 -61.5 41.5s-31.5 38.167 -41.5 61.5s-15 48.333 -15 75v129c0 36.667 13 71.667 39 105
c-26 32.667 -39 68.334 -39 107.001v129c0 27.333 5.16699 52.833 15.5 76.5s24.333 44.167 42 61.5s38.167 31 61.5 41s48.333 15 75 15c26 0 50.833 -5.16699 74.5 -15.5s44.167 -24.166 61.5 -41.499s31.166 -37.833 41.499 -61.5s15.5 -48.834 15.5 -75.501v-129
c0 -38.667 -13 -74 -39 -106c26 -31.333 39 -66.666 39 -105.999v-129z" />
    <glyph glyph-name="nine" unicode="9" 
d="M251 663c0 14 -6.66699 21 -20 21c-14 0 -21 -7 -21 -21v-169c0 -14.667 7 -22 21 -22c13.333 0 20 9 20 27v164zM424 193c0 -26 -5.00293 -50.6689 -15.0029 -74.002s-23.833 -43.833 -41.5 -61.5s-38.167 -31.667 -61.5 -42s-48.333 -15.5 -75 -15.5
c-27.333 0 -52.666 5 -75.999 15s-43.833 23.833 -61.5 41.5s-31.5 38.167 -41.5 61.5s-15 48.333 -15 75v68h173v-68c0 -13.333 7 -20 21 -20c13.333 0 20 6.66699 20 20v108c-3.33301 -0.666992 -6.66602 -1.16699 -9.99902 -1.5s-6.66602 -0.5 -9.99902 -0.5
c-27.333 0 -52.666 5.16699 -75.999 15.5s-43.833 24.333 -61.5 42s-31.5 38.334 -41.5 62.001s-15 48.834 -15 75.501v169c0 27.333 5.16699 52.833 15.5 76.5s24.333 44.167 42 61.5s38.167 31 61.5 41s48.333 15 75 15c26 0 50.833 -5.16699 74.5 -15.5
s44.167 -24.166 61.5 -41.499s31.166 -37.833 41.499 -61.5s15.5 -48.834 15.5 -75.501v-470z" />
    <glyph glyph-name="colon" unicode=":" horiz-adv-x="215" 
d="M201 97c0 -26 -7.5 -48.668 -22.5 -68.001s-35.167 -29 -60.5 -29c-13.333 0 -25.5 2.66699 -36.5 8s-20.5 12.5 -28.5 21.5s-14.167 19.333 -18.5 31s-6.5 23.834 -6.5 36.501c0 26 8.5 48.667 25.5 68s38.5 29 64.5 29c25.333 0 45.5 -9.5 60.5 -28.5
s22.5 -41.833 22.5 -68.5zM201 385.999c0 -12.667 -2 -24.833 -6 -36.5s-9.5 -22 -16.5 -31s-15.667 -16.167 -26 -21.5s-21.833 -8 -34.5 -8c-13.333 0 -25.5 2.66699 -36.5 8s-20.5 12.5 -28.5 21.5s-14.167 19.333 -18.5 31s-6.5 23.834 -6.5 36.501
c0 13.333 2.16699 26 6.5 38s10.5 22.5 18.5 31.5s17.5 16.167 28.5 21.5s23.167 8 36.5 8c25.333 0 45.5 -9.83301 60.5 -29.5s22.5 -42.834 22.5 -69.501z" />
    <glyph glyph-name="semicolon" unicode=";" horiz-adv-x="212" 
d="M181 88c0 -44 -10.333 -80.166 -31 -108.499s-49.334 -44.833 -86.001 -49.5c13.333 13.333 20 28 20 44c0 6 -2.5 15 -7.5 27l-16.5 39c-6 14 -11.5 27.5 -16.5 40.5s-7.5 23.5 -7.5 31.5c0 21.333 7.33301 39.666 22 54.999s32.334 23 53.001 23
c46.667 0 70 -34 70 -102zM199 386.001c0 -12.667 -1.99902 -24.833 -5.99902 -36.5s-9.5 -22 -16.5 -31s-15.833 -16.167 -26.5 -21.5s-22.334 -8 -35.001 -8s-24.334 2.66699 -35.001 8s-20 12.5 -28 21.5s-14.167 19.333 -18.5 31s-6.5 23.834 -6.5 36.501
c0 13.333 2.16699 26 6.5 38s10.5 22.5 18.5 31.5s17.333 16.167 28 21.5s22.334 8 35.001 8c26 0 46.5 -9.83301 61.5 -29.5s22.5 -42.834 22.5 -69.501z" />
    <glyph glyph-name="less" unicode="&#x3c;" horiz-adv-x="302" 
d="M289 242h-101l-180 179l180 180h101l-179 -180z" />
    <glyph glyph-name="equal" unicode="=" horiz-adv-x="330" 
d="M321 266h-281v118h281v-118zM321 473h-281v120h281v-120z" />
    <glyph glyph-name="greater" unicode="&#x3e;" horiz-adv-x="349" 
d="M341 421l-179 -179h-101l180 179l-180 180h101z" />
    <glyph glyph-name="question" unicode="?" horiz-adv-x="427" 
d="M280 97c0 -26 -7.66602 -48.667 -22.999 -68s-36 -29 -62 -29c-13.333 -0 -25.333 2.83301 -36 8.5s-19.834 13 -27.501 22s-13.667 19.333 -18 31s-6.5 23.5 -6.5 35.5c0 12.667 2.33301 25 7 37s11 22.333 19 31s17.333 15.667 28 21s22 8 34 8
c26 0 46.667 -9.5 62 -28.5s23 -41.833 23 -68.5zM405.001 663c-1.33301 -26.667 -5 -52.5039 -11 -77.5039s-16 -49.167 -30 -72.5c-5.33301 -8.66699 -14.5 -21 -27.5 -37l-40 -50c-13.667 -17.333 -26 -33.666 -37 -48.999s-16.833 -27 -17.5 -35l-10 -104h-87
c-18 86 -27 136.667 -27 152c0 44.667 19 94 57 148c38 54.667 57 96.334 57 125.001c0 14 -7.33301 21 -22 21c-13.333 0 -20 -7 -20 -21v-56h-173v56c0 26.667 5.16699 51.834 15.5 75.501s24.333 44.334 42 62.001s38.167 31.5 61.5 41.5s48 15 74 15
s50.833 -5.16699 74.5 -15.5s44.5 -24.166 62.5 -41.499s32.167 -37.833 42.5 -61.5s15.5 -48.834 15.5 -75.501z" />
    <glyph glyph-name="at" unicode="@" horiz-adv-x="518" 
d="M268 375c-12.667 -8 -19 -15.333 -19 -22c0 -7.33301 3.33301 -11 10 -11c6 0 9 3.66699 9 11v22zM377 304c0 -26.667 -12.001 -39.999 -36.001 -39.999c-16.667 0 -26.667 7.66699 -30 23c-11.333 -16 -28.666 -24 -51.999 -24c-25.333 0 -46.833 8.66699 -64.5 26
s-26.5 38.666 -26.5 63.999c0 24 8.66699 45.333 26 64c4 4 10.167 9 18.5 15l24.5 18l21.5 16.5c6.33301 5 9.5 8.5 9.5 10.5v15c0 6 -3 9 -9 9c-11.333 0 -17 -9.66699 -17 -29h-68v20c0 59.333 28.333 89 85 89c12 0 23.333 -2.33301 34 -7s20.167 -11 28.5 -19
s14.833 -17.5 19.5 -28.5s7 -22.5 7 -34.5v-150h29v-38zM410.999 527.001c0 20 -3.83301 38.998 -11.5 56.998s-18.334 33.833 -32.001 47.5s-29.5 24.334 -47.5 32.001s-37 11.5 -57 11.5c-20.667 0 -40 -3.83301 -58 -11.5s-33.667 -18.167 -47 -31.5
s-23.833 -29 -31.5 -47s-11.5 -37.333 -11.5 -58v-231c0 -20.667 3.83301 -40 11.5 -58s18.167 -33.667 31.5 -47s29 -23.833 47 -31.5s37.333 -11.5 58 -11.5c20 0 39 3.83301 57 11.5s33.833 18.334 47.5 32.001s24.334 29.5 32.001 47.5s11.5 37 11.5 57v231z
M483.999 254.999c0 -27.333 -6.33301 -53.166 -19 -77.499s-29.334 -45.5 -50.001 -63.5s-44.334 -32.333 -71.001 -43s-53.667 -16 -81 -16s-54.333 5.33301 -81 16s-50.334 25.167 -71.001 43.5s-37.334 39.666 -50.001 63.999s-19 49.833 -19 76.5v311
c0 26 6.33301 51 19 75s29.334 45.167 50.001 63.5s44.334 33 71.001 44s53.667 16.5 81 16.5s54.333 -5.33301 81 -16s50.334 -25.167 71.001 -43.5s37.334 -39.5 50.001 -63.5s19 -49.333 19 -76v-311z" />
    <glyph glyph-name="A" unicode="A" horiz-adv-x="417" 
d="M229 139l-17 197l-19 -197h36zM410 -1h-172l-5 96h-42l-8 -96h-172l123 858h156z" />
    <glyph glyph-name="B" unicode="B" horiz-adv-x="466" 
d="M251 301c0 8.66699 -3.16797 17.5 -9.50098 26.5s-14.166 13.5 -23.499 13.5h-9v-168h9c22 0 33 13 33 39v89zM250.999 644c0 26.667 -10.999 40 -32.999 40h-9v-169h9c9.33301 0 17.166 4.5 23.499 13.5s9.5 18.167 9.5 27.5v88zM424 197
c0 -24.667 -4.99609 -48.834 -14.9961 -72.501s-23.667 -44.667 -41 -63s-37.333 -33.166 -60 -44.499s-47 -17 -73 -17h-199v857h199c25.333 0 49.333 -5.66699 72 -17s42.667 -26.166 60 -44.499s31.166 -39.333 41.499 -63s15.5 -47.834 15.5 -72.501v-118
c0 -24 -6.33301 -46.667 -19 -68s-29.334 -37 -50.001 -47c10 -4 19.167 -10 27.5 -18s15.666 -17 21.999 -27s11.166 -20.833 14.499 -32.5s5 -23.5 5 -35.5v-117z" />
    <glyph glyph-name="C" unicode="C" 
d="M424 193c0 -26 -5 -50.667 -15 -74s-23.833 -43.833 -41.5 -61.5s-38.167 -31.667 -61.5 -42s-48.333 -15.5 -75 -15.5c-27.333 0 -52.666 5 -75.999 15s-43.833 23.833 -61.5 41.5s-31.5 38.167 -41.5 61.5s-15 48.333 -15 75v470c0 27.333 5.16699 52.833 15.5 76.5
s24.333 44.167 42 61.5s38.167 31 61.5 41s48.333 15 75 15c26 0 50.833 -5.16699 74.5 -15.5s44.167 -24.166 61.5 -41.499s31.166 -37.833 41.499 -61.5s15.5 -48.834 15.5 -75.501v-186h-173v186c0 14 -6.66699 21 -20 21c-14 0 -21 -7 -21 -21v-470
c0 -13.333 7 -20 21 -20c13.333 0 20 6.66699 20 20v196h173v-196z" />
    <glyph glyph-name="D" unicode="D" 
d="M251 663c0 14 -6.66699 21 -20 21h-21v-511h21c13.333 0 20 6.66699 20 20v470zM424 193c0 -26 -4.99902 -50.667 -14.999 -74s-23.833 -43.833 -41.5 -61.5s-38.167 -31.667 -61.5 -42s-48.333 -15.5 -75 -15.5h-194v857h194c26 0 50.833 -5.16699 74.5 -15.5
s44.167 -24.166 61.5 -41.499s31.166 -37.833 41.499 -61.5s15.5 -48.834 15.5 -75.501v-470z" />
    <glyph glyph-name="E" unicode="E" horiz-adv-x="435" 
d="M394 0h-358v857h358v-173h-185v-169h98v-173h-98v-169h185v-173z" />
    <glyph glyph-name="F" unicode="F" horiz-adv-x="394" 
d="M383 684h-184v-180h97v-173h-97v-331h-173v857h357v-173z" />
    <glyph glyph-name="G" unicode="G" horiz-adv-x="458" 
d="M443 342l-28.001 0.000976562v-260c0 -28 7 -55.333 21 -82h-114c-16 4.66699 -26 24 -30 58c0 -8.66699 -2.66699 -16.667 -8 -24s-12.333 -13.5 -21 -18.5s-18.5 -8.83301 -29.5 -11.5s-22.167 -4 -33.5 -4c-25.333 0 -48.666 4.83301 -69.999 14.5
s-39.5 23.167 -54.5 40.5s-26.667 37.666 -35 60.999s-12.5 49 -12.5 77v470c0 27.333 5.16699 52.833 15.5 76.5s24.333 44.167 42 61.5s38.167 31 61.5 41s48 15 74 15c26.667 0 51.834 -5.16699 75.501 -15.5s44.167 -24.166 61.5 -41.499s31.166 -37.833 41.499 -61.5
s15.5 -48.834 15.5 -75.501v-67h-173v67c0 14 -7 21 -21 21c-13.333 0 -20 -7 -20 -21v-470c0 -13.333 6.66699 -20 20 -20c14 0 21 6.66699 21 20v322h201v-173z" />
    <glyph glyph-name="H" unicode="H" horiz-adv-x="466" 
d="M424 0h-173v342h-41v-342h-173v857h173v-342h41v342h173v-857z" />
    <glyph glyph-name="I" unicode="I" horiz-adv-x="252" 
d="M210 0h-173v857h173v-857z" />
    <glyph glyph-name="J" unicode="J" horiz-adv-x="476" 
d="M424 193c0 -26 -5.00098 -50.667 -15.001 -74s-23.833 -43.833 -41.5 -61.5s-38.167 -31.667 -61.5 -42s-48.333 -15.5 -75 -15.5c-27.333 0 -52.666 5 -75.999 15s-43.833 23.833 -61.5 41.5s-31.5 38.167 -41.5 61.5s-15 48.333 -15 75v99h173v-99
c0 -13.333 7 -20 21 -20c13.333 0 20 6.66699 20 20v664h173v-664z" />
    <glyph glyph-name="K" unicode="K" horiz-adv-x="477" 
d="M479 857l-219 -376l210 -481h-191l-79 191v-191h-173v857h173v-145l84 145h195z" />
    <glyph glyph-name="L" unicode="L" horiz-adv-x="346" 
d="M328 0h-301v857h173v-684h128v-173z" />
    <glyph glyph-name="M" unicode="M" horiz-adv-x="601" 
d="M560 0h-172v220l-63 -220h-53l-62 220v-220h-173v857h174l85 -438l90 438h174v-857z" />
    <glyph glyph-name="N" unicode="N" horiz-adv-x="466" 
d="M424 0h-152l-62 199v-199h-173v857h152l62 -213v213h173v-857z" />
    <glyph glyph-name="O" unicode="O" horiz-adv-x="462" 
d="M251 663c0 14 -6.66699 21 -20 21c-14 0 -21 -7 -21 -21v-470c0 -13.333 7 -20 21 -20c13.333 0 20 6.66699 20 20v470zM424 193c0 -26 -5 -50.667 -15 -74s-23.833 -43.833 -41.5 -61.5s-38.167 -31.667 -61.5 -42s-48.333 -15.5 -75 -15.5
c-27.333 0 -52.666 5 -75.999 15s-43.833 23.833 -61.5 41.5s-31.5 38.167 -41.5 61.5s-15 48.333 -15 75v470c0 27.333 5.16699 52.833 15.5 76.5s24.333 44.167 42 61.5s38.167 31 61.5 41s48.333 15 75 15c26 0 50.833 -5.16699 74.5 -15.5s44.167 -24.166 61.5 -41.499
s31.166 -37.833 41.499 -61.5s15.5 -48.834 15.5 -75.501v-470z" />
    <glyph glyph-name="P" unicode="P" horiz-adv-x="443" 
d="M245 644c0 26.667 -10.999 40 -32.999 40h-7v-169h7c9.33301 0 17.166 4.5 23.499 13.5s9.5 18.167 9.5 27.5v88zM418.001 542c0 -24 -5 -47.998 -15 -71.998s-23.667 -45.5 -41 -64.5s-37.333 -34.333 -60 -46s-46.334 -17.5 -71.001 -17.5h-26v-342h-173v857h199
c24.667 0 48.334 -5.5 71.001 -16.5s42.5 -25.833 59.5 -44.5s30.667 -39.834 41 -63.501s15.5 -47.834 15.5 -72.501v-118z" />
    <glyph glyph-name="Q" unicode="Q" horiz-adv-x="458" 
d="M445 -82c-60 0 -107 -24.6631 -141 -73.9961l-128 89c13.333 23.333 32.333 45.666 57 66.999h-14c-26 0 -50.333 5.16699 -73 15.5s-42.5 24.166 -59.5 41.499s-30.5 37.833 -40.5 61.5s-15 48.5 -15 74.5v470c0 27.333 5.16699 52.833 15.5 76.5s24.333 44.167 42 61.5
s38.167 31 61.5 41s48 15 74 15s50.667 -5 74 -15s43.833 -23.833 61.5 -41.5s31.667 -38.334 42 -62.001s15.5 -48.834 15.5 -75.501v-470c0 -46.667 -14.667 -87.667 -44 -123c24 6 48 9 72 9v-161zM244 663.004c0 14 -6.66699 21 -20 21c-14.667 0 -22 -7 -22 -21v-470
c0 -13.333 7.33301 -20 22 -20c13.333 0 20 6.66699 20 20v470z" />
    <glyph glyph-name="R" unicode="R" 
d="M251 644c0 26.667 -10.999 40 -32.999 40h-8v-169h8c9.33301 0 17.166 4.5 23.499 13.5s9.5 18.167 9.5 27.5v88zM424.001 0l-173 0.000976562v301c0 26.667 -13.667 40 -41 40v-341h-173v857h199c24.667 0 48.5 -5.5 71.5 -16.5s43 -25.833 60 -44.5
s30.667 -39.834 41 -63.501s15.5 -47.834 15.5 -72.501v-118c0 -41.333 -14.667 -79.666 -44 -114.999c29.333 -35.333 44 -73 44 -113v-314z" />
    <glyph glyph-name="S" unicode="S" 
d="M424 193c0 -26 -5 -50.666 -15 -73.999s-23.833 -43.833 -41.5 -61.5s-38.167 -31.667 -61.5 -42s-48.333 -15.5 -75 -15.5c-27.333 0 -52.666 5 -75.999 15s-43.833 23.833 -61.5 41.5s-31.5 38.167 -41.5 61.5s-15 48.333 -15 75v95h173v-95c0 -13.333 7 -20 21 -20
c13.333 0 20 6.66699 20 20c0 63.333 -18.667 114.333 -56 153l-102 98c-37.333 51.333 -56 124.333 -56 219c0 27.333 5.16699 52.833 15.5 76.5s24.333 44.167 42 61.5s38.167 31 61.5 41s48.333 15 75 15c26 0 50.833 -5.16699 74.5 -15.5s44.167 -24.166 61.5 -41.499
s31.166 -37.833 41.499 -61.5s15.5 -48.834 15.5 -75.501v-95h-173v95c0 14 -6.66699 21 -20 21c-14 0 -21 -7 -21 -21c0 -30 4.66699 -57 14 -81s21.5 -46.333 36.5 -67s32 -40.334 51 -59.001l56.5 -56c37.333 -52.667 56 -121.667 56 -207z" />
    <glyph glyph-name="T" unicode="T" horiz-adv-x="353" 
d="M339 684h-78v-684h-173v684h-78v173h329v-173z" />
    <glyph glyph-name="U" unicode="U" horiz-adv-x="462" 
d="M424 193c0 -26 -5.00098 -50.667 -15.001 -74s-23.833 -43.833 -41.5 -61.5s-38.167 -31.667 -61.5 -42s-48.333 -15.5 -75 -15.5c-27.333 0 -52.666 5 -75.999 15s-43.833 23.833 -61.5 41.5s-31.5 38.167 -41.5 61.5s-15 48.333 -15 75v664h173v-664
c0 -13.333 7 -20 21 -20c13.333 0 20 6.66699 20 20v664h173v-664z" />
    <glyph glyph-name="V" unicode="V" horiz-adv-x="412" 
d="M408 857l-124 -857h-155l-121 857h172l28 -196l28 196h172z" />
    <glyph glyph-name="W" unicode="W" horiz-adv-x="603" 
d="M597 858l-114 -858h-145l-36 246l-36 -246h-145l-111 858h172l37 -231l32 231h105l32 -231l37 231h172z" />
    <glyph glyph-name="X" unicode="X" horiz-adv-x="496" 
d="M472 857l-133 -428l133 -429h-186l-41 139l-39 -139h-187l132 429l-132 428h189l37 -134l39 134h188z" />
    <glyph glyph-name="Y" unicode="Y" horiz-adv-x="457" 
d="M315 400v-400h-173v397l-140 460h178l48 -155l49 155h177z" />
    <glyph glyph-name="Z" unicode="Z" horiz-adv-x="432" 
d="M410 0h-386v116l182 568h-182v173h386v-117l-183 -567h183v-173z" />
    <glyph glyph-name="backslash" unicode="\" horiz-adv-x="425" 
d="M410 0h-78l-281 857h74z" />
    <glyph glyph-name="asciicircum" unicode="^" horiz-adv-x="414" 
d="M382 527l-180 179l-178 -179v154l178 180l180 -180v-154z" />
    <glyph glyph-name="underscore" unicode="_" horiz-adv-x="511" 
d="M511 -182h-490v125h490v-125z" />
    <glyph glyph-name="grave" unicode="`" horiz-adv-x="345" 
d="M241 820l22 -71h-58l-73 71h109z" />
    <glyph glyph-name="a" unicode="a" horiz-adv-x="479" 
d="M236 314c-27.333 -18 -41 -38.333 -41 -61v-60c0 -13.333 7 -20 21 -20c13.333 0 20 6.66699 20 20v121zM473 87c0 -24 -6.99805 -44.167 -20.998 -60.5s-32.667 -24.5 -56 -24.5c-37.333 0 -60 17 -68 51c-24 -35.333 -61.333 -53 -112 -53c-26.667 0 -51.667 5 -75 15
s-43.833 23.833 -61.5 41.5s-31.5 38.167 -41.5 61.5s-15 48.333 -15 75c0 51.333 18.333 95 55 131c7.33301 7.33301 19.666 16.333 36.999 27l53 31.5l47.5 28c13.667 8.33301 20.5 14.166 20.5 17.499v66c0 16 -7 24 -21 24s-21 -13 -21 -39v-15
c0.666992 -3.33301 1 -5.83301 1 -7.5v-3.5h-161v41c0 58.667 15.667 105.5 47 140.5s76.333 52.5 135 52.5c26 0 50.833 -5.16699 74.5 -15.5s44.167 -24.166 61.5 -41.499s31.166 -37.833 41.499 -61.5s15.5 -48.5 15.5 -74.5v-321h64v-86z" />
    <glyph glyph-name="b" unicode="b" horiz-adv-x="437" 
d="M238 494c0 13.333 -6.66699 20 -20 20c-14 0 -21 -6.66699 -21 -20v-301c0 -13.333 7 -20 21 -20c13.333 0 20 6.66699 20 20v301zM411 193c0 -26 -5.16504 -50.8359 -15.498 -74.5029s-24.166 -44.167 -41.499 -61.5s-37.666 -31.166 -60.999 -41.499
s-48.333 -15.5 -75 -15.5c-8.66699 0 -19.334 1.83301 -32.001 5.5s-25.334 7.66699 -38.001 12l-35 12c-10.667 3.66699 -18.334 5.5 -23.001 5.5c-20.667 0 -42.667 -11.667 -66 -35v873h173v-187c3.33301 0.666992 6.66602 1 9.99902 1h11c26 0 50.667 -5.16699 74 -15.5
s43.833 -24.166 61.5 -41.499s31.667 -37.666 42 -60.999s15.5 -48.333 15.5 -75v-301z" />
    <glyph glyph-name="c" unicode="c" horiz-adv-x="437" 
d="M411 193c0 -26 -5.16992 -50.834 -15.5029 -74.501s-24.166 -44.167 -41.499 -61.5s-37.666 -31.166 -60.999 -41.499s-48.333 -15.5 -75 -15.5s-51.834 5 -75.501 15s-44.167 23.833 -61.5 41.5s-31.166 38.167 -41.499 61.5s-15.5 48.333 -15.5 75v301
c0 26.667 5.16699 51.667 15.5 75s24.333 43.666 42 60.999s38.334 31.166 62.001 41.499s48.5 15.5 74.5 15.5s50.667 -5.16699 74 -15.5s43.833 -24.166 61.5 -41.499s31.667 -37.666 42 -60.999s15.5 -48.333 15.5 -75v-101h-173v101c0 13.333 -6.66699 20 -20 20
c-14 0 -21 -6.66699 -21 -20v-301c0 -13.333 7 -20 21 -20c13.333 0 20 6.66699 20 20v120h173v-120z" />
    <glyph glyph-name="d" unicode="d" horiz-adv-x="466" 
d="M251 494c0 13.333 -6.66699 20 -20 20c-14 0 -21 -6.66699 -21 -20v-301c0 -13.333 7 -20 21 -20c13.333 0 20 6.66699 20 20v301zM424 0c-30 13.333 -56.334 20.0029 -79.001 20.0029c-6.66699 0 -16.167 -1.16699 -28.5 -3.5l-38.5 -7l-38.5 -7
c-12.333 -2.33301 -21.833 -3.5 -28.5 -3.5c-24.667 0 -47.5 5.5 -68.5 16.5s-39.333 25.667 -55 44s-28 39.166 -37 62.499s-13.5 47 -13.5 71v301c0 27.333 5.16699 52.666 15.5 75.999s24.5 43.666 42.5 60.999s39 31 63 41s49.667 15 77 15h8
c2.66699 0 5.33398 -0.333008 8.00098 -1v187h173v-873z" />
    <glyph glyph-name="e" unicode="e" horiz-adv-x="437" 
d="M238 494c0 13.333 -6.66699 20 -20 20c-14 0 -21 -6.66699 -21 -20v-88h41v88zM411 193c0 -26 -5.16992 -50.834 -15.5029 -74.501s-24.166 -44.167 -41.499 -61.5s-37.666 -31.166 -60.999 -41.499s-48.333 -15.5 -75 -15.5s-51.834 5 -75.501 15
s-44.167 23.833 -61.5 41.5s-31.166 38.167 -41.499 61.5s-15.5 48.333 -15.5 75v301c0 26.667 5.16699 51.667 15.5 75s24.333 43.666 42 60.999s38.334 31.166 62.001 41.499s48.5 15.5 74.5 15.5s50.667 -5.16699 74 -15.5s43.833 -24.166 61.5 -41.499
s31.667 -37.666 42 -60.999s15.5 -48.333 15.5 -75v-144h-214v-157c0 -13.333 7 -20 21 -20c13.333 0 20 6.66699 20 20v77h173v-77z" />
    <glyph glyph-name="f" unicode="f" horiz-adv-x="354" 
d="M354 680h-111v-58h61v-173h-61v-449h-173v449h-44v173h44v92c0 48 12.5 86.333 37.5 115s60.833 43 107.5 43c44 0 78.167 -14.833 102.5 -44.5s36.5 -67.5 36.5 -113.5v-34z" />
    <glyph glyph-name="g" unicode="g" 
d="M264 -21c0 4.66699 -3.66699 9.16699 -11 13.5s-14 6.5 -20 6.5s-12.833 -2.16699 -20.5 -6.5s-11.5 -8.83301 -11.5 -13.5v-12c0 -5.33301 3.83301 -10 11.5 -14s14.5 -6 20.5 -6s12.667 2 20 6s11 8.66699 11 14v12zM253 472c0 14 -6.66699 21 -20 21
c-14 0 -21 -7 -21 -21v-118c0 -14 7 -21 21 -21c13.333 0 20 7 20 21v118zM437 -33c0 -86 -68 -128.999 -204 -128.999c-136.667 0 -205 43 -205 129v12c0 60 37.667 98.667 113 116c-31.333 11.333 -47 25.666 -47 42.999c0 19.333 18.333 33.333 55 42
c-34 16.667 -60.667 40.334 -80 71.001s-29 65 -29 103v118c0 26 5 51.833 15 77.5s23.833 48.667 41.5 69s38.167 36.833 61.5 49.5s48.333 19 75 19h17c98 0 156.667 23 176 69v-402c0 -21.333 -3.33301 -41.833 -10 -61.5s-16.167 -37.834 -28.5 -54.501s-27 -31 -44 -43
s-35.5 -21 -55.5 -27c-4.66699 -1.33301 -12.167 -2.5 -22.5 -3.5s-20.833 -2.66699 -31.5 -5s-20.167 -5.5 -28.5 -9.5s-12.5 -9.66699 -12.5 -17c0 -17.333 13.333 -26 40 -26c136 0 204 -42.667 204 -128v-12z" />
    <glyph glyph-name="h" unicode="h" horiz-adv-x="455" 
d="M426 0l-173 -0.000976562v494c0 13.333 -7 20 -21 20s-21 -6.66699 -21 -20v-494h-173v873h173v-193c8.66699 4.66699 16.667 7 24 7c26 0 50.5 -5.16699 73.5 -15.5s43.333 -24.166 61 -41.499s31.5 -37.833 41.5 -61.5s15 -48.5 15 -74.5v-494z" />
    <glyph glyph-name="i" unicode="i" horiz-adv-x="260" 
d="M210 0h-173v687h173v-687zM209 788c0 -24.667 -7.83301 -44.5 -23.5 -59.5s-35.834 -22.5 -60.501 -22.5s-45.334 7.33301 -62.001 22s-25 34.667 -25 60c0 24 8.33301 43.333 25 58s37.334 22 62.001 22s44.834 -7.33301 60.501 -22s23.5 -34 23.5 -58z" />
    <glyph glyph-name="j" unicode="j" horiz-adv-x="333" 
d="M284 -7c0 -48 -12.833 -86.167 -38.5 -114.5s-61.167 -42.5 -106.5 -42.5c-44 0 -78.167 14.667 -102.5 44s-36.5 67 -36.5 113v34h111v660h173v-694zM284 788c0 -24.667 -8 -44.5 -24 -59.5s-36 -22.5 -60 -22.5c-24.667 0 -45.334 7.33301 -62.001 22
s-25 34.667 -25 60c0 24 8.33301 43.333 25 58s37.334 22 62.001 22c24 0 44 -7.33301 60 -22s24 -34 24 -58z" />
    <glyph glyph-name="k" unicode="k" horiz-adv-x="462" 
d="M457 687l-182 -284l180 -403h-189l-60 136v-136h-173v873h173v-265l43 79h208z" />
    <glyph glyph-name="l" unicode="l" horiz-adv-x="252" 
d="M210 0h-173v873h173v-873z" />
    <glyph glyph-name="m" unicode="m" horiz-adv-x="668" 
d="M640 0l-173.001 -0.000976562v494c0 13.333 -7 20 -21 20c-13.333 0 -20 -6.66699 -20 -20v-494h-173v494c0 13.333 -7 20 -21 20s-21 -6.66699 -21 -20v-494h-173v687c38 -12 67 -18 87 -18c1.33301 0 5 1 11 3s13.833 4 23.5 6s20.667 4 33 6s25.5 3 39.5 3
c41.333 0 77 -12 107 -36c28.667 24 64.334 36 107.001 36c26.667 0 51.834 -5.16699 75.501 -15.5s44.167 -24.166 61.5 -41.499s31.166 -37.833 41.499 -61.5s15.5 -48.5 15.5 -74.5v-494z" />
    <glyph glyph-name="n" unicode="n" horiz-adv-x="454" 
d="M426 0l-173.002 -0.00195312v494c0 13.333 -7 20 -21 20s-21 -6.66699 -21 -20v-494h-173v687c36.667 -13.333 64.334 -20 83.001 -20c2.66699 0 8.83398 0.833008 18.501 2.5s23.167 5.16699 40.5 10.5c7.33301 2 15.333 3.66699 24 5s18 2 28 2
c26 0 50.667 -5.16699 74 -15.5s44 -24.166 62 -41.499s32.167 -37.666 42.5 -60.999s15.5 -48.333 15.5 -75v-494z" />
    <glyph glyph-name="o" unicode="o" horiz-adv-x="437" 
d="M238 494c0 13.333 -6.66699 20 -20 20c-14 0 -21 -6.66699 -21 -20v-301c0 -13.333 7 -20 21 -20c13.333 0 20 6.66699 20 20v301zM411 193c0 -26 -5.16992 -50.834 -15.5029 -74.501s-24.166 -44.167 -41.499 -61.5s-37.666 -31.166 -60.999 -41.499
s-48.333 -15.5 -75 -15.5s-51.834 5 -75.501 15s-44.167 23.833 -61.5 41.5s-31.166 38.167 -41.499 61.5s-15.5 48.333 -15.5 75v301c0 26.667 5.16699 51.667 15.5 75s24.333 43.666 42 60.999s38.334 31.166 62.001 41.499s48.5 15.5 74.5 15.5s50.667 -5.16699 74 -15.5
s43.833 -24.166 61.5 -41.499s31.667 -37.666 42 -60.999s15.5 -48.333 15.5 -75v-301z" />
    <glyph glyph-name="p" unicode="p" horiz-adv-x="437" 
d="M238 494c0 13.333 -6.66699 20 -20 20c-14 0 -21 -6.66699 -21 -20v-301c0 -14 7 -21 21 -21c13.333 0 20 7 20 21v301zM411 193c0 -28 -5.33203 -53.6699 -15.999 -77.0029s-25 -43.666 -43 -60.999s-39 -30.833 -63 -40.5s-49.667 -14.5 -77 -14.5h-15v-188h-173v875
c30 -13.333 54.333 -20 73 -20c5.33301 0 13.166 1 23.499 3s21.5 4.33301 33.5 7s23.833 5 35.5 7s21.167 3 28.5 3c26 0 50.667 -5.16699 74 -15.5s43.833 -24.166 61.5 -41.499s31.667 -37.666 42 -60.999s15.5 -48.333 15.5 -75v-301z" />
    <glyph glyph-name="q" unicode="q" horiz-adv-x="466" 
d="M251 494c0 13.333 -6.66699 20 -20 20c-14 0 -21 -6.66699 -21 -20v-301c0 -13.333 7 -20 21 -20c13.333 0 20 6.66699 20 20v301zM424 -186l-173.001 -0.000976562v186h-20c-27.333 0 -52.666 5 -75.999 15s-43.833 23.833 -61.5 41.5s-31.5 38.167 -41.5 61.5
s-15 48.333 -15 75v301c0 26.667 5.16699 51.667 15.5 75s24.333 43.833 42 61.5s38.167 31.5 61.5 41.5s48.333 15 75 15c7.33301 0 17 -1.16699 29 -3.5l37 -7c12.667 -2.33301 24.5 -4.66602 35.5 -6.99902s19.5 -3.5 25.5 -3.5c20.667 0 42.667 7 66 21v-873z" />
    <glyph glyph-name="r" unicode="r" horiz-adv-x="321" 
d="M259 499c-8 10.667 -17.334 16 -28.001 16c-16.667 0 -25 -7 -25 -21v-494h-172v687c32.667 -17.333 57 -26 73 -26c12.667 0 25.334 1.5 38.001 4.5s24.667 6.33301 36 10l30.5 10c9 3 16.167 4.5 21.5 4.5c39.333 0 70 -13.667 92 -41z" />
    <glyph glyph-name="s" unicode="s" horiz-adv-x="438" 
d="M412 193c0 -26 -5 -50.668 -15 -74.001s-23.833 -43.833 -41.5 -61.5s-38.167 -31.667 -61.5 -42s-48.333 -15.5 -75 -15.5s-51.667 5 -75 15s-43.833 23.833 -61.5 41.5s-31.5 38.167 -41.5 61.5s-15 48.333 -15 75v57h173v-57c0 -13.333 6.66699 -20 20 -20
c14 0 21 6.66699 21 20c0 18 -5.16699 34.667 -15.5 50s-23.166 29.5 -38.499 42.5s-32.5 25.333 -51.5 37s-36.833 23.167 -53.5 34.5c-36.667 34.667 -55 83 -55 145c0 26.667 5.16699 51.667 15.5 75s24.333 43.833 42 61.5s38.167 31.5 61.5 41.5s48 15 74 15
s50.833 -5.16699 74.5 -15.5s44.167 -24.166 61.5 -41.499s31.166 -37.833 41.499 -61.5s15.5 -48.5 15.5 -74.5v-58h-172v58c0 13.333 -7 20 -21 20c-13.333 0 -20 -6.66699 -20 -20c0 -42.667 18.333 -76 55 -100l103 -62c36.667 -32.667 55 -81.667 55 -147z" />
    <glyph glyph-name="t" unicode="t" horiz-adv-x="342" 
d="M328 159c0 -22 -3.16699 -42.6689 -9.5 -62.002s-15.333 -36.166 -27 -50.499s-26 -25.5 -43 -33.5s-36.5 -12 -58.5 -12c-46 0 -81.833 14.333 -107.5 43s-38.5 67 -38.5 115v355h-44v173c25.333 0 49.833 4.83301 73.5 14.5s45.167 22.834 64.5 39.501
s35.833 36.5 49.5 59.5s23.5 47.833 29.5 74.5v-188h62v-173h-62v-321h111v-34z" />
    <glyph glyph-name="u" unicode="u" 
d="M424 0c-32 16 -58.334 24 -79.001 24c-4.66699 0 -11.834 -1.33301 -21.501 -4l-31 -8.5c-11 -3 -22.167 -5.66699 -33.5 -8s-20.666 -3.5 -27.999 -3.5c-27.333 0 -52.666 5 -75.999 15s-43.833 23.833 -61.5 41.5s-31.5 38.167 -41.5 61.5s-15 48.333 -15 75v494h173
v-494c0 -13.333 7 -20 21 -20c13.333 0 20 6.66699 20 20v494h173v-687z" />
    <glyph glyph-name="v" unicode="v" horiz-adv-x="424" 
d="M417 687l-127 -687h-152l-124 687h172l30 -236l29 236h172z" />
    <glyph glyph-name="w" unicode="w" horiz-adv-x="618" 
d="M603 687l-115 -687h-142l-38 238l-38 -238h-142l-113 687h173l26 -214l32 214h126l33 -214l27 214h171z" />
    <glyph glyph-name="x" unicode="x" horiz-adv-x="498" 
d="M478 687l-136 -342l136 -345h-189l-42 116l-42 -116h-189l135 345l-135 342h191l40 -113l40 113h191z" />
    <glyph glyph-name="y" unicode="y" horiz-adv-x="427" 
d="M417 687l-164 -875h-172l48 229l-115 646h172l30 -146l29 146h172z" />
    <glyph glyph-name="z" unicode="z" horiz-adv-x="446" 
d="M418 0h-386v120l179 394h-179v173h386v-120l-180 -394h180v-173z" />
    <glyph glyph-name="exclamdown" unicode="&#xa1;" horiz-adv-x="251" 
d="M217 611c0 -26 -7.5 -48.668 -22.5 -68.001s-35.5 -29 -61.5 -29c-12.667 0 -24.5 2.66699 -35.5 8s-20.5 12.5 -28.5 21.5s-14.167 19.333 -18.5 31s-6.5 23.834 -6.5 36.501s2.16699 25 6.5 37s10.5 22.5 18.5 31.5s17.5 16.167 28.5 21.5s22.833 8 35.5 8
c26 0 46.5 -9.66699 61.5 -29s22.5 -42.333 22.5 -69zM217 -73.001c0 -26.667 -7.83203 -48.834 -23.499 -66.501s-36.5 -26.5 -62.5 -26.5s-47 8.83301 -63 26.5s-24 39.834 -24 66.501c0 22.667 0.5 42.667 1.5 60s2.16699 32.333 3.5 45c4 34 7.66699 63.667 11 89l9 70
l7.5 59.5l7 57.5c2.33301 20 4.66602 41.5 6.99902 64.5s4.83301 49.5 7.5 79.5h66l12.5 -138.5c3.66699 -41.667 8.16699 -79.5 13.5 -113.5l24 -168c2 -25.333 3 -60.333 3 -105z" />
    <glyph glyph-name="dieresis" unicode="&#xa8;" horiz-adv-x="330" 
d="M149 775c0 -11.333 -5 -20.833 -15 -28.5s-23 -11.5 -39 -11.5c-15.333 0 -28.166 3.83301 -38.499 11.5s-15.5 17.167 -15.5 28.5s5.16699 21.166 15.5 29.499s23.166 12.5 38.499 12.5c16 0 29 -4.16699 39 -12.5s15 -18.166 15 -29.499zM303 775
c0 -11.333 -5.33301 -20.833 -16 -28.5s-23.334 -11.5 -38.001 -11.5c-16 0 -29.333 3.83301 -40 11.5s-16 17.167 -16 28.5s5.33301 21.166 16 29.499s24 12.5 40 12.5c14.667 0 27.334 -4.16699 38.001 -12.5s16 -18.166 16 -29.499z" />
    <glyph glyph-name="copyright" unicode="&#xa9;" horiz-adv-x="961" 
d="M46 424c0 60.667 11.5 117.667 34.5 171s54.5 99.833 94.5 139.5s86.667 71 140 94s110.333 34.5 171 34.5s117.667 -11.5 171 -34.5s99.833 -54.333 139.5 -94s71 -86.167 94 -139.5s34.5 -110.333 34.5 -171s-11.5 -117.667 -34.5 -171s-54.333 -100 -94 -140
s-86.167 -71.5 -139.5 -94.5s-110.333 -34.5 -171 -34.5s-117.667 11.5 -171 34.5s-100 54.5 -140 94.5s-71.5 86.667 -94.5 140s-34.5 110.333 -34.5 171zM98 421c0 -53.333 10.167 -103.666 30.5 -150.999s48.166 -88.5 83.499 -123.5s76.5 -62.667 123.5 -83
s97.5 -30.5 151.5 -30.5c53.333 0 103.666 10.167 150.999 30.5s88.833 48 124.5 83s63.834 76.167 84.501 123.5s31 97.666 31 150.999c0 54 -10.333 105 -31 153s-48.834 89.667 -84.501 125s-77.167 63.333 -124.5 84s-97.666 31 -150.999 31
c-54 0 -104.5 -10.333 -151.5 -31s-88.167 -48.667 -123.5 -84s-63.166 -77 -83.499 -125s-30.5 -99 -30.5 -153zM605 287c0 -16 -3.16699 -31 -9.5 -45s-14.666 -26.167 -24.999 -36.5s-22.5 -18.5 -36.5 -24.5s-29 -9 -45 -9c-15.333 0 -30 3 -44 9
s-26.167 14.167 -36.5 24.5s-18.5 22.5 -24.5 36.5s-9 29 -9 45v279c0 16 3 31 9 45s14.167 26.167 24.5 36.5s22.5 18.5 36.5 24.5s28.667 9 44 9c16 0 31 -3 45 -9s26.167 -14.167 36.5 -24.5s18.666 -22.5 24.999 -36.5s9.5 -29 9.5 -45v-111h-103v111
c0 8.66699 -4.33301 13 -13 13c-8 0 -12 -4.33301 -12 -13v-279c0 -8 4 -12 12 -12c8.66699 0 13 4 13 12v116h103v-116z" />
    <glyph glyph-name="guillemotleft" unicode="&#xab;" horiz-adv-x="423" 
d="M107 383l116 -54v-68l-177 87v67l177 91v-70zM275 383l115 -54v-68l-176 87v67l176 91v-70z" />
    <glyph glyph-name="registered" unicode="&#xae;" horiz-adv-x="610" 
d="M305 803c-31.333 0 -59.665 -5.66699 -84.998 -17s-46.833 -26 -64.5 -44s-31.167 -38.5 -40.5 -61.5s-14 -46.5 -14 -70.5s4.66699 -47.667 14 -71s22.833 -44 40.5 -62s39.167 -32.667 64.5 -44s53.666 -17 84.999 -17c29.333 0 57.166 5 83.499 15
s49.5 23.667 69.5 41s35.833 37.833 47.5 61.5s17.5 49.167 17.5 76.5c0 24 -5.33301 47.5 -16 70.5s-25.667 43.5 -45 61.5s-42.333 32.667 -69 44s-56 17 -88 17zM306.001 372c-37.333 0 -71.332 6.49902 -101.999 19.499s-57.334 30.5 -80.001 52.5
s-40.167 47.333 -52.5 76s-18.5 58.667 -18.5 90c0 32.667 6.16699 63.5 18.5 92.5s29.833 54.5 52.5 76.5s49.334 39.333 80.001 52s64.667 19 102 19s71.666 -6.16699 102.999 -18.5s58.5 -29.333 81.5 -51s41 -47.167 54 -76.5s19.5 -60.666 19.5 -93.999
c0 -31.333 -6.66699 -61.333 -20 -90s-31.5 -54 -54.5 -76s-50.333 -39.5 -82 -52.5s-65.5 -19.5 -101.5 -19.5zM278.002 683.999v-59h43c18 0 27 9.33301 27 28c0 20.667 -9 31 -27 31h-43zM305.002 571.999h-27v-95h-51v259h93c24 0 43.333 -7.16699 58 -21.5
s22 -34.833 22 -61.5c0 -17.333 -3.33301 -31.5 -10 -42.5s-17.667 -21.167 -33 -30.5l46 -103h-54z" />
    <glyph glyph-name="acute" unicode="&#xb4;" horiz-adv-x="345" 
d="M322 820l-72 -71h-59l23 71h108z" />
    <glyph glyph-name="cedilla" unicode="&#xb8;" horiz-adv-x="289" 
d="M234 -98c0 -50.667 -28.333 -75.999 -85 -75.999c-14 0 -33 2 -57 6v76c38 0 57 8.66699 57 26c0 4 -1.16699 10.333 -3.5 19s-3.5 15.667 -3.5 21c0 18 10 35.667 30 53h47c-16.667 -20.667 -25 -35.334 -25 -44.001c0 -2 2 -5 6 -9s8.5 -9.33301 13.5 -16
s9.66699 -14.5 14 -23.5s6.5 -19.833 6.5 -32.5z" />
    <glyph glyph-name="guillemotright" unicode="&#xbb;" horiz-adv-x="436" 
d="M341 385l-115 53v68l176 -87v-66l-176 -92v70zM174 385l-115 53v68l176 -87v-66l-176 -92v70z" />
    <glyph glyph-name="questiondown" unicode="&#xbf;" horiz-adv-x="427" 
d="M145 588c0 26 7.5 48.833 22.5 68.5s35.167 29.5 60.5 29.5c12.667 0 24.5 -2.66699 35.5 -8s20.5 -12.5 28.5 -21.5s14.333 -19.5 19 -31.5s7 -24.333 7 -37c0 -13.333 -2.33301 -25.833 -7 -37.5s-11 -22 -19 -31s-17.5 -16.167 -28.5 -21.5s-22.833 -8 -35.5 -8
c-23.333 0 -43 9 -59 27s-24 41.667 -24 71zM20 21c0 54 13.665 104.333 40.998 151c4.66699 8 13.334 20 26.001 36l40 50c14 17.333 26.5 33.833 37.5 49.5s16.833 27.167 17.5 34.5l11 104h87c17.333 -86.667 26 -137 26 -151c0 -44.667 -19 -94.334 -57 -149.001
c-37.333 -55.333 -56 -97 -56 -125c0 -13.333 7 -20 21 -20c13.333 0 20 6.66699 20 20v57h173v-57c0 -26 -5.16699 -50.833 -15.5 -74.5s-24.166 -44.167 -41.499 -61.5s-37.833 -31.166 -61.5 -41.499s-48.5 -15.5 -74.5 -15.5c-26.667 0 -51.667 5 -75 15
s-43.833 23.833 -61.5 41.5s-31.667 38.167 -42 61.5s-15.5 48.333 -15.5 75z" />
    <glyph glyph-name="Agrave" unicode="&#xc0;" horiz-adv-x="417" 
d="M229 139l-17 197l-19 -197h36zM410 -1h-172l-5 96h-42l-8 -96h-172l123 858h156zM251 990l22 -71h-58l-73 71h109z" />
    <glyph glyph-name="Aacute" unicode="&#xc1;" horiz-adv-x="417" 
d="M229 139l-17 197l-19 -197h36zM410 -1h-172l-5 96h-42l-8 -96h-172l123 858h156zM280 990l-72 -71h-59l23 71h108z" />
    <glyph glyph-name="Acircumflex" unicode="&#xc2;" horiz-adv-x="417" 
d="M229 139l-17 197l-19 -197h36zM410 -1h-172l-5 96h-42l-8 -96h-172l123 858h156zM333 908h-69l-56 50l-52 -50h-72l76 82h96z" />
    <glyph glyph-name="Atilde" unicode="&#xc3;" horiz-adv-x="417" 
d="M229 139l-17 197l-19 -197h36zM410 -1h-172l-5 96h-42l-8 -96h-172l123 858h156zM331 990c-18 -54.667 -38.999 -82 -62.999 -82c-4.66699 0 -11.167 2.33301 -19.5 7l-25.5 15l-24 15c-7.33301 4.66699 -12.333 7 -15 7c-12 0 -21.333 -14 -28 -42h-57
c14.667 54.667 33 82 55 82c4.66699 0 11.167 -2.33301 19.5 -7s17 -10 26 -16l25 -16c7.66699 -4.66699 13.167 -7 16.5 -7c15.333 0 27.666 14.667 36.999 44h53z" />
    <glyph glyph-name="Adieresis" unicode="&#xc4;" horiz-adv-x="417" 
d="M229 139l-17 197l-19 -197h36zM410 -1h-172l-5 96h-42l-8 -96h-172l123 858h156zM185 945c0 -11.333 -5 -20.833 -15 -28.5s-23 -11.5 -39 -11.5c-15.333 0 -28.166 3.83301 -38.499 11.5s-15.5 17.167 -15.5 28.5s5.16699 21.166 15.5 29.499s23.166 12.5 38.499 12.5
c16 0 29 -4.16699 39 -12.5s15 -18.166 15 -29.499zM339 945c0 -11.333 -5.33301 -20.833 -16 -28.5s-23.334 -11.5 -38.001 -11.5c-16 0 -29.333 3.83301 -40 11.5s-16 17.167 -16 28.5s5.33301 21.166 16 29.499s24 12.5 40 12.5c14.667 0 27.334 -4.16699 38.001 -12.5
s16 -18.166 16 -29.499z" />
    <glyph glyph-name="Aring" unicode="&#xc5;" horiz-adv-x="417" 
d="M229 139l-17 197l-19 -197h36zM410 -1h-172l-5 96h-42l-8 -96h-172l123 858h156zM174 942c0 -11.333 4 -20.833 12 -28.5s17.667 -11.5 29 -11.5c12 0 22 3.83301 30 11.5s12 17.167 12 28.5s-4 20.666 -12 27.999s-18 11 -30 11c-11.333 0 -21 -3.66699 -29 -11
s-12 -16.666 -12 -27.999zM292 942c0 -20.667 -7.83301 -37.5 -23.5 -50.5s-33.834 -19.5 -54.501 -19.5s-38.5 6.5 -53.5 19.5s-22.5 29.833 -22.5 50.5c0 19.333 7.5 35.666 22.5 48.999s32.833 20 53.5 20s38.834 -6.66699 54.501 -20s23.5 -29.666 23.5 -48.999z" />
    <glyph glyph-name="AE" unicode="&#xc6;" horiz-adv-x="540" 
d="M246 142v128l-22 -128h22zM507 -1h-261v96h-30l-11 -96h-171l123 858h350v-173h-99v-169c3.33301 -2.66699 9 -4 17 -4s17 1.33301 27 4v-173h-44v-169h99v-174z" />
    <glyph glyph-name="Ccedilla" unicode="&#xc7;" 
d="M424 193c0 -26 -5 -50.667 -15 -74s-23.833 -43.833 -41.5 -61.5s-38.167 -31.667 -61.5 -42s-48.333 -15.5 -75 -15.5c-27.333 0 -52.666 5 -75.999 15s-43.833 23.833 -61.5 41.5s-31.5 38.167 -41.5 61.5s-15 48.333 -15 75v470c0 27.333 5.16699 52.833 15.5 76.5
s24.333 44.167 42 61.5s38.167 31 61.5 41s48.333 15 75 15c26 0 50.833 -5.16699 74.5 -15.5s44.167 -24.166 61.5 -41.499s31.166 -37.833 41.499 -61.5s15.5 -48.834 15.5 -75.501v-186h-173v186c0 14 -6.66699 21 -20 21c-14 0 -21 -7 -21 -21v-470
c0 -13.333 7 -20 21 -20c13.333 0 20 6.66699 20 20v196h173v-196zM305 -98c0 -50.667 -28.333 -75.999 -85 -75.999c-14 0 -33 2 -57 6v76c38 0 57 8.66699 57 26c0 4 -1.16699 10.333 -3.5 19s-3.5 15.667 -3.5 21c0 18 10 35.667 30 53h47
c-16.667 -20.667 -25 -35.334 -25 -44.001c0 -2 2 -5 6 -9s8.5 -9.33301 13.5 -16s9.66699 -14.5 14 -23.5s6.5 -19.833 6.5 -32.5z" />
    <glyph glyph-name="Egrave" unicode="&#xc8;" horiz-adv-x="435" 
d="M394 0h-358v857h358v-173h-185v-169h98v-173h-98v-169h185v-173zM260 990l22 -71h-58l-73 71h109z" />
    <glyph glyph-name="Eacute" unicode="&#xc9;" horiz-adv-x="435" 
d="M394 0h-358v857h358v-173h-185v-169h98v-173h-98v-169h185v-173zM289 990l-72 -71h-59l23 71h108z" />
    <glyph glyph-name="Ecircumflex" unicode="&#xca;" horiz-adv-x="435" 
d="M394 0h-358v857h358v-173h-185v-169h98v-173h-98v-169h185v-173zM342 908h-69l-56 50l-52 -50h-72l76 82h96z" />
    <glyph glyph-name="Edieresis" unicode="&#xcb;" horiz-adv-x="435" 
d="M394 0h-358v857h358v-173h-185v-169h98v-173h-98v-169h185v-173zM194 945c0 -11.333 -5 -20.833 -15 -28.5s-23 -11.5 -39 -11.5c-15.333 0 -28.166 3.83301 -38.499 11.5s-15.5 17.167 -15.5 28.5s5.16699 21.166 15.5 29.499s23.166 12.5 38.499 12.5
c16 0 29 -4.16699 39 -12.5s15 -18.166 15 -29.499zM348 945c0 -11.333 -5.33301 -20.833 -16 -28.5s-23.334 -11.5 -38.001 -11.5c-16 0 -29.333 3.83301 -40 11.5s-16 17.167 -16 28.5s5.33301 21.166 16 29.499s24 12.5 40 12.5c14.667 0 27.334 -4.16699 38.001 -12.5
s16 -18.166 16 -29.499z" />
    <glyph glyph-name="Igrave" unicode="&#xcc;" horiz-adv-x="252" 
d="M210 0h-173v857h173v-857zM175 990l22 -71h-58l-73 71h109z" />
    <glyph glyph-name="Iacute" unicode="&#xcd;" horiz-adv-x="252" 
d="M210 0h-173v857h173v-857zM198 990l-72 -71h-59l23 71h108z" />
    <glyph glyph-name="Icircumflex" unicode="&#xce;" horiz-adv-x="252" 
d="M210 0h-173v857h173v-857zM256 908h-69l-56 50l-52 -50h-72l76 82h96z" />
    <glyph glyph-name="Idieresis" unicode="&#xcf;" horiz-adv-x="252" 
d="M210 0h-173v857h173v-857zM109 945c0 -11.333 -5 -20.833 -15 -28.5s-23 -11.5 -39 -11.5c-15.333 0 -28.166 3.83301 -38.499 11.5s-15.5 17.167 -15.5 28.5s5.16699 21.166 15.5 29.499s23.166 12.5 38.499 12.5c16 0 29 -4.16699 39 -12.5s15 -18.166 15 -29.499z
M263 945c0 -11.333 -5.33301 -20.833 -16 -28.5s-23.334 -11.5 -38.001 -11.5c-16 0 -29.333 3.83301 -40 11.5s-16 17.167 -16 28.5s5.33301 21.166 16 29.499s24 12.5 40 12.5c14.667 0 27.334 -4.16699 38.001 -12.5s16 -18.166 16 -29.499z" />
    <glyph glyph-name="Eth" unicode="&#xd0;" 
d="M424 193c0 -26 -4.99902 -50.667 -14.999 -74s-23.833 -43.833 -41.5 -61.5s-38.167 -31.667 -61.5 -42s-48.333 -15.5 -75 -15.5h-194v333h-21v159h21v365h194c26 0 50.833 -5.16699 74.5 -15.5s44.167 -24.166 61.5 -41.499s31.166 -37.833 41.499 -61.5
s15.5 -48.834 15.5 -75.501v-470zM237.001 333h-27v-160h21c13.333 0 20 6.66699 20 20v470c0 14 -6.66699 21 -20 21h-21v-192h27v-159z" />
    <glyph glyph-name="Ntilde" unicode="&#xd1;" horiz-adv-x="466" 
d="M424 0h-152l-62 199v-199h-173v857h152l62 -213v213h173v-857zM349 990c-18 -54.667 -38.999 -82 -62.999 -82c-4.66699 0 -11.167 2.33301 -19.5 7l-25.5 15l-24 15c-7.33301 4.66699 -12.333 7 -15 7c-12 0 -21.333 -14 -28 -42h-57c14.667 54.667 33 82 55 82
c4.66699 0 11.167 -2.33301 19.5 -7s17 -10 26 -16l25 -16c7.66699 -4.66699 13.167 -7 16.5 -7c15.333 0 27.666 14.667 36.999 44h53z" />
    <glyph glyph-name="Ograve" unicode="&#xd2;" horiz-adv-x="462" 
d="M251 663c0 14 -6.66699 21 -20 21c-14 0 -21 -7 -21 -21v-470c0 -13.333 7 -20 21 -20c13.333 0 20 6.66699 20 20v470zM424 193c0 -26 -5 -50.667 -15 -74s-23.833 -43.833 -41.5 -61.5s-38.167 -31.667 -61.5 -42s-48.333 -15.5 -75 -15.5
c-27.333 0 -52.666 5 -75.999 15s-43.833 23.833 -61.5 41.5s-31.5 38.167 -41.5 61.5s-15 48.333 -15 75v470c0 27.333 5.16699 52.833 15.5 76.5s24.333 44.167 42 61.5s38.167 31 61.5 41s48.333 15 75 15c26 0 50.833 -5.16699 74.5 -15.5s44.167 -24.166 61.5 -41.499
s31.166 -37.833 41.499 -61.5s15.5 -48.834 15.5 -75.501v-470zM274 990l22 -71h-58l-73 71h109z" />
    <glyph glyph-name="Oacute" unicode="&#xd3;" horiz-adv-x="462" 
d="M251 663c0 14 -6.66699 21 -20 21c-14 0 -21 -7 -21 -21v-470c0 -13.333 7 -20 21 -20c13.333 0 20 6.66699 20 20v470zM424 193c0 -26 -5 -50.667 -15 -74s-23.833 -43.833 -41.5 -61.5s-38.167 -31.667 -61.5 -42s-48.333 -15.5 -75 -15.5
c-27.333 0 -52.666 5 -75.999 15s-43.833 23.833 -61.5 41.5s-31.5 38.167 -41.5 61.5s-15 48.333 -15 75v470c0 27.333 5.16699 52.833 15.5 76.5s24.333 44.167 42 61.5s38.167 31 61.5 41s48.333 15 75 15c26 0 50.833 -5.16699 74.5 -15.5s44.167 -24.166 61.5 -41.499
s31.166 -37.833 41.499 -61.5s15.5 -48.834 15.5 -75.501v-470zM303 990l-72 -71h-59l23 71h108z" />
    <glyph glyph-name="Ocircumflex" unicode="&#xd4;" horiz-adv-x="462" 
d="M251 663c0 14 -6.66699 21 -20 21c-14 0 -21 -7 -21 -21v-470c0 -13.333 7 -20 21 -20c13.333 0 20 6.66699 20 20v470zM424 193c0 -26 -5 -50.667 -15 -74s-23.833 -43.833 -41.5 -61.5s-38.167 -31.667 -61.5 -42s-48.333 -15.5 -75 -15.5
c-27.333 0 -52.666 5 -75.999 15s-43.833 23.833 -61.5 41.5s-31.5 38.167 -41.5 61.5s-15 48.333 -15 75v470c0 27.333 5.16699 52.833 15.5 76.5s24.333 44.167 42 61.5s38.167 31 61.5 41s48.333 15 75 15c26 0 50.833 -5.16699 74.5 -15.5s44.167 -24.166 61.5 -41.499
s31.166 -37.833 41.499 -61.5s15.5 -48.834 15.5 -75.501v-470zM356 908h-69l-56 50l-52 -50h-72l76 82h96z" />
    <glyph glyph-name="Otilde" unicode="&#xd5;" horiz-adv-x="462" 
d="M251 663c0 14 -6.66699 21 -20 21c-14 0 -21 -7 -21 -21v-470c0 -13.333 7 -20 21 -20c13.333 0 20 6.66699 20 20v470zM424 193c0 -26 -5 -50.667 -15 -74s-23.833 -43.833 -41.5 -61.5s-38.167 -31.667 -61.5 -42s-48.333 -15.5 -75 -15.5
c-27.333 0 -52.666 5 -75.999 15s-43.833 23.833 -61.5 41.5s-31.5 38.167 -41.5 61.5s-15 48.333 -15 75v470c0 27.333 5.16699 52.833 15.5 76.5s24.333 44.167 42 61.5s38.167 31 61.5 41s48.333 15 75 15c26 0 50.833 -5.16699 74.5 -15.5s44.167 -24.166 61.5 -41.499
s31.166 -37.833 41.499 -61.5s15.5 -48.834 15.5 -75.501v-470zM347 990c-18 -54.667 -38.999 -82 -62.999 -82c-4.66699 0 -11.167 2.33301 -19.5 7l-25.5 15l-24 15c-7.33301 4.66699 -12.333 7 -15 7c-12 0 -21.333 -14 -28 -42h-57c14.667 54.667 33 82 55 82
c4.66699 0 11.167 -2.33301 19.5 -7s17 -10 26 -16l25 -16c7.66699 -4.66699 13.167 -7 16.5 -7c15.333 0 27.666 14.667 36.999 44h53z" />
    <glyph glyph-name="Odieresis" unicode="&#xd6;" horiz-adv-x="462" 
d="M251 663c0 14 -6.66699 21 -20 21c-14 0 -21 -7 -21 -21v-470c0 -13.333 7 -20 21 -20c13.333 0 20 6.66699 20 20v470zM424 193c0 -26 -5 -50.667 -15 -74s-23.833 -43.833 -41.5 -61.5s-38.167 -31.667 -61.5 -42s-48.333 -15.5 -75 -15.5
c-27.333 0 -52.666 5 -75.999 15s-43.833 23.833 -61.5 41.5s-31.5 38.167 -41.5 61.5s-15 48.333 -15 75v470c0 27.333 5.16699 52.833 15.5 76.5s24.333 44.167 42 61.5s38.167 31 61.5 41s48.333 15 75 15c26 0 50.833 -5.16699 74.5 -15.5s44.167 -24.166 61.5 -41.499
s31.166 -37.833 41.499 -61.5s15.5 -48.834 15.5 -75.501v-470zM208 945c0 -11.333 -5 -20.833 -15 -28.5s-23 -11.5 -39 -11.5c-15.333 0 -28.166 3.83301 -38.499 11.5s-15.5 17.167 -15.5 28.5s5.16699 21.166 15.5 29.499s23.166 12.5 38.499 12.5
c16 0 29 -4.16699 39 -12.5s15 -18.166 15 -29.499zM362 945c0 -11.333 -5.33301 -20.833 -16 -28.5s-23.334 -11.5 -38.001 -11.5c-16 0 -29.333 3.83301 -40 11.5s-16 17.167 -16 28.5s5.33301 21.166 16 29.499s24 12.5 40 12.5c14.667 0 27.334 -4.16699 38.001 -12.5
s16 -18.166 16 -29.499z" />
    <glyph glyph-name="Oslash" unicode="&#xd8;" horiz-adv-x="462" 
d="M410 857l-25.001 -77c26 -33.333 39 -72.333 39 -117v-470c0 -26.667 -5.16699 -51.667 -15.5 -75s-24.333 -43.833 -42 -61.5s-38.167 -31.5 -61.5 -41.5s-48 -15 -74 -15c-33.333 0 -64.666 7.66699 -93.999 23l-8 -23h-78l25 76c-26 32.667 -39 71.667 -39 117v470
c0 26.667 5.16699 51.667 15.5 75s24.166 43.833 41.499 61.5s37.833 31.667 61.5 42s48.834 15.5 75.501 15.5c34.667 0 66.667 -8.66699 96 -26l9 26h74zM250.999 663c0 14 -6.66699 21 -20 21c-14 0 -21 -7 -21 -21v-184l41 122v62zM250.999 371l-41 -125v-53
c0 -13.333 7 -20 21 -20c13.333 0 20 6.66699 20 20v178z" />
    <glyph glyph-name="Ugrave" unicode="&#xd9;" horiz-adv-x="462" 
d="M424 193c0 -26 -5.00098 -50.667 -15.001 -74s-23.833 -43.833 -41.5 -61.5s-38.167 -31.667 -61.5 -42s-48.333 -15.5 -75 -15.5c-27.333 0 -52.666 5 -75.999 15s-43.833 23.833 -61.5 41.5s-31.5 38.167 -41.5 61.5s-15 48.333 -15 75v664h173v-664
c0 -13.333 7 -20 21 -20c13.333 0 20 6.66699 20 20v664h173v-664zM273.999 990l22 -71h-58l-73 71h109z" />
    <glyph glyph-name="Uacute" unicode="&#xda;" horiz-adv-x="462" 
d="M424 193c0 -26 -5.00098 -50.667 -15.001 -74s-23.833 -43.833 -41.5 -61.5s-38.167 -31.667 -61.5 -42s-48.333 -15.5 -75 -15.5c-27.333 0 -52.666 5 -75.999 15s-43.833 23.833 -61.5 41.5s-31.5 38.167 -41.5 61.5s-15 48.333 -15 75v664h173v-664
c0 -13.333 7 -20 21 -20c13.333 0 20 6.66699 20 20v664h173v-664zM302.999 990l-72 -71h-59l23 71h108z" />
    <glyph glyph-name="Ucircumflex" unicode="&#xdb;" horiz-adv-x="462" 
d="M424 193c0 -26 -5.00098 -50.667 -15.001 -74s-23.833 -43.833 -41.5 -61.5s-38.167 -31.667 -61.5 -42s-48.333 -15.5 -75 -15.5c-27.333 0 -52.666 5 -75.999 15s-43.833 23.833 -61.5 41.5s-31.5 38.167 -41.5 61.5s-15 48.333 -15 75v664h173v-664
c0 -13.333 7 -20 21 -20c13.333 0 20 6.66699 20 20v664h173v-664zM355.999 908h-69l-56 50l-52 -50h-72l76 82h96z" />
    <glyph glyph-name="Udieresis" unicode="&#xdc;" horiz-adv-x="462" 
d="M424 193c0 -26 -5.00098 -50.667 -15.001 -74s-23.833 -43.833 -41.5 -61.5s-38.167 -31.667 -61.5 -42s-48.333 -15.5 -75 -15.5c-27.333 0 -52.666 5 -75.999 15s-43.833 23.833 -61.5 41.5s-31.5 38.167 -41.5 61.5s-15 48.333 -15 75v664h173v-664
c0 -13.333 7 -20 21 -20c13.333 0 20 6.66699 20 20v664h173v-664zM207.999 945c0 -11.333 -5 -20.833 -15 -28.5s-23 -11.5 -39 -11.5c-15.333 0 -28.166 3.83301 -38.499 11.5s-15.5 17.167 -15.5 28.5s5.16699 21.166 15.5 29.499s23.166 12.5 38.499 12.5
c16 0 29 -4.16699 39 -12.5s15 -18.166 15 -29.499zM361.999 945c0 -11.333 -5.33301 -20.833 -16 -28.5s-23.334 -11.5 -38.001 -11.5c-16 0 -29.333 3.83301 -40 11.5s-16 17.167 -16 28.5s5.33301 21.166 16 29.499s24 12.5 40 12.5
c14.667 0 27.334 -4.16699 38.001 -12.5s16 -18.166 16 -29.499z" />
    <glyph glyph-name="Yacute" unicode="&#xdd;" horiz-adv-x="457" 
d="M315 400v-400h-173v397l-140 460h178l48 -155l49 155h177zM297 990l-72 -71h-59l23 71h108z" />
    <glyph glyph-name="Thorn" unicode="&#xde;" horiz-adv-x="443" 
d="M205 0l-173.003 -0.000976562v857h173v-151h26c24.667 0 48.334 -5.66699 71.001 -17s42.5 -26.166 59.5 -44.499s30.667 -39.166 41 -62.499s15.5 -47.333 15.5 -72v-118c0 -24.667 -5.16699 -49 -15.5 -73s-24.166 -45.333 -41.499 -64
s-37.166 -33.834 -59.499 -45.501s-45.833 -17.5 -70.5 -17.5h-26v-192zM244.997 493.999c0 26 -10.999 39 -32.999 39h-7v-168h7c9.33301 0 17.166 4.5 23.499 13.5s9.5 18.167 9.5 27.5v88z" />
    <glyph glyph-name="germandbls" unicode="&#xdf;" horiz-adv-x="435" 
d="M411 193c0 -128.667 -63.667 -192.998 -191 -192.998v173h5c8.66699 0 13 6.66699 13 20v127c0 14.667 -4.66699 22 -14 22h-4v173c12 0 18 7.33301 18 22v126c0 14 -6.66699 21 -20 21s-20 -7 -20 -21v-663h-173v663c0 27.333 5.16699 52.833 15.5 76.5
s24.333 44.167 42 61.5s38.167 31 61.5 41s48 15 74 15s50.667 -5 74 -15s43.833 -23.833 61.5 -41.5s31.667 -38.334 42 -62.001s15.5 -48.834 15.5 -75.501v-131c0 -38 -18 -72.333 -54 -103c36 -30 54 -62 54 -96v-140z" />
    <glyph glyph-name="agrave" unicode="&#xe0;" horiz-adv-x="479" 
d="M236 314c-27.333 -18 -41 -38.333 -41 -61v-60c0 -13.333 7 -20 21 -20c13.333 0 20 6.66699 20 20v121zM473 87c0 -24 -6.99805 -44.167 -20.998 -60.5s-32.667 -24.5 -56 -24.5c-37.333 0 -60 17 -68 51c-24 -35.333 -61.333 -53 -112 -53c-26.667 0 -51.667 5 -75 15
s-43.833 23.833 -61.5 41.5s-31.5 38.167 -41.5 61.5s-15 48.333 -15 75c0 51.333 18.333 95 55 131c7.33301 7.33301 19.666 16.333 36.999 27l53 31.5l47.5 28c13.667 8.33301 20.5 14.166 20.5 17.499v66c0 16 -7 24 -21 24s-21 -13 -21 -39v-15
c0.666992 -3.33301 1 -5.83301 1 -7.5v-3.5h-161v41c0 58.667 15.667 105.5 47 140.5s76.333 52.5 135 52.5c26 0 50.833 -5.16699 74.5 -15.5s44.167 -24.166 61.5 -41.499s31.166 -37.833 41.499 -61.5s15.5 -48.5 15.5 -74.5v-321h64v-86zM283.002 820l22 -71h-58l-73 71
h109z" />
    <glyph glyph-name="aacute" unicode="&#xe1;" horiz-adv-x="479" 
d="M236 314c-27.333 -18 -41 -38.333 -41 -61v-60c0 -13.333 7 -20 21 -20c13.333 0 20 6.66699 20 20v121zM473 87c0 -24 -6.99805 -44.167 -20.998 -60.5s-32.667 -24.5 -56 -24.5c-37.333 0 -60 17 -68 51c-24 -35.333 -61.333 -53 -112 -53c-26.667 0 -51.667 5 -75 15
s-43.833 23.833 -61.5 41.5s-31.5 38.167 -41.5 61.5s-15 48.333 -15 75c0 51.333 18.333 95 55 131c7.33301 7.33301 19.666 16.333 36.999 27l53 31.5l47.5 28c13.667 8.33301 20.5 14.166 20.5 17.499v66c0 16 -7 24 -21 24s-21 -13 -21 -39v-15
c0.666992 -3.33301 1 -5.83301 1 -7.5v-3.5h-161v41c0 58.667 15.667 105.5 47 140.5s76.333 52.5 135 52.5c26 0 50.833 -5.16699 74.5 -15.5s44.167 -24.166 61.5 -41.499s31.166 -37.833 41.499 -61.5s15.5 -48.5 15.5 -74.5v-321h64v-86zM311.002 820l-72 -71h-59l23 71
h108z" />
    <glyph glyph-name="acircumflex" unicode="&#xe2;" horiz-adv-x="479" 
d="M236 314c-27.333 -18 -41 -38.333 -41 -61v-60c0 -13.333 7 -20 21 -20c13.333 0 20 6.66699 20 20v121zM473 87c0 -24 -6.99805 -44.167 -20.998 -60.5s-32.667 -24.5 -56 -24.5c-37.333 0 -60 17 -68 51c-24 -35.333 -61.333 -53 -112 -53c-26.667 0 -51.667 5 -75 15
s-43.833 23.833 -61.5 41.5s-31.5 38.167 -41.5 61.5s-15 48.333 -15 75c0 51.333 18.333 95 55 131c7.33301 7.33301 19.666 16.333 36.999 27l53 31.5l47.5 28c13.667 8.33301 20.5 14.166 20.5 17.499v66c0 16 -7 24 -21 24s-21 -13 -21 -39v-15
c0.666992 -3.33301 1 -5.83301 1 -7.5v-3.5h-161v41c0 58.667 15.667 105.5 47 140.5s76.333 52.5 135 52.5c26 0 50.833 -5.16699 74.5 -15.5s44.167 -24.166 61.5 -41.499s31.166 -37.833 41.499 -61.5s15.5 -48.5 15.5 -74.5v-321h64v-86zM364.002 738h-69l-56 50
l-52 -50h-72l76 82h96z" />
    <glyph glyph-name="atilde" unicode="&#xe3;" horiz-adv-x="479" 
d="M236 314c-27.333 -18 -41 -38.333 -41 -61v-60c0 -13.333 7 -20 21 -20c13.333 0 20 6.66699 20 20v121zM473 87c0 -24 -6.99805 -44.167 -20.998 -60.5s-32.667 -24.5 -56 -24.5c-37.333 0 -60 17 -68 51c-24 -35.333 -61.333 -53 -112 -53c-26.667 0 -51.667 5 -75 15
s-43.833 23.833 -61.5 41.5s-31.5 38.167 -41.5 61.5s-15 48.333 -15 75c0 51.333 18.333 95 55 131c7.33301 7.33301 19.666 16.333 36.999 27l53 31.5l47.5 28c13.667 8.33301 20.5 14.166 20.5 17.499v66c0 16 -7 24 -21 24s-21 -13 -21 -39v-15
c0.666992 -3.33301 1 -5.83301 1 -7.5v-3.5h-161v41c0 58.667 15.667 105.5 47 140.5s76.333 52.5 135 52.5c26 0 50.833 -5.16699 74.5 -15.5s44.167 -24.166 61.5 -41.499s31.166 -37.833 41.499 -61.5s15.5 -48.5 15.5 -74.5v-321h64v-86zM356.002 820
c-18 -54.667 -38.999 -82 -62.999 -82c-4.66699 0 -11.167 2.33301 -19.5 7l-25.5 15l-24 15c-7.33301 4.66699 -12.333 7 -15 7c-12 0 -21.333 -14 -28 -42h-57c14.667 54.667 33 82 55 82c4.66699 0 11.167 -2.33301 19.5 -7s17 -10 26 -16l25 -16
c7.66699 -4.66699 13.167 -7 16.5 -7c15.333 0 27.666 14.667 36.999 44h53z" />
    <glyph glyph-name="adieresis" unicode="&#xe4;" horiz-adv-x="479" 
d="M236 314c-27.333 -18 -41 -38.333 -41 -61v-60c0 -13.333 7 -20 21 -20c13.333 0 20 6.66699 20 20v121zM473 87c0 -24 -6.99805 -44.167 -20.998 -60.5s-32.667 -24.5 -56 -24.5c-37.333 0 -60 17 -68 51c-24 -35.333 -61.333 -53 -112 -53c-26.667 0 -51.667 5 -75 15
s-43.833 23.833 -61.5 41.5s-31.5 38.167 -41.5 61.5s-15 48.333 -15 75c0 51.333 18.333 95 55 131c7.33301 7.33301 19.666 16.333 36.999 27l53 31.5l47.5 28c13.667 8.33301 20.5 14.166 20.5 17.499v66c0 16 -7 24 -21 24s-21 -13 -21 -39v-15
c0.666992 -3.33301 1 -5.83301 1 -7.5v-3.5h-161v41c0 58.667 15.667 105.5 47 140.5s76.333 52.5 135 52.5c26 0 50.833 -5.16699 74.5 -15.5s44.167 -24.166 61.5 -41.499s31.166 -37.833 41.499 -61.5s15.5 -48.5 15.5 -74.5v-321h64v-86zM217.002 775
c0 -11.333 -5 -20.833 -15 -28.5s-23 -11.5 -39 -11.5c-15.333 0 -28.166 3.83301 -38.499 11.5s-15.5 17.167 -15.5 28.5s5.16699 21.166 15.5 29.499s23.166 12.5 38.499 12.5c16 0 29 -4.16699 39 -12.5s15 -18.166 15 -29.499zM371.002 775
c0 -11.333 -5.33301 -20.833 -16 -28.5s-23.334 -11.5 -38.001 -11.5c-16 0 -29.333 3.83301 -40 11.5s-16 17.167 -16 28.5s5.33301 21.166 16 29.499s24 12.5 40 12.5c14.667 0 27.334 -4.16699 38.001 -12.5s16 -18.166 16 -29.499z" />
    <glyph glyph-name="aring" unicode="&#xe5;" horiz-adv-x="479" 
d="M236 314c-27.333 -18 -41 -38.333 -41 -61v-60c0 -13.333 7 -20 21 -20c13.333 0 20 6.66699 20 20v121zM473 87c0 -24 -6.99805 -44.167 -20.998 -60.5s-32.667 -24.5 -56 -24.5c-37.333 0 -60 17 -68 51c-24 -35.333 -61.333 -53 -112 -53c-26.667 0 -51.667 5 -75 15
s-43.833 23.833 -61.5 41.5s-31.5 38.167 -41.5 61.5s-15 48.333 -15 75c0 51.333 18.333 95 55 131c7.33301 7.33301 19.666 16.333 36.999 27l53 31.5l47.5 28c13.667 8.33301 20.5 14.166 20.5 17.499v66c0 16 -7 24 -21 24s-21 -13 -21 -39v-15
c0.666992 -3.33301 1 -5.83301 1 -7.5v-3.5h-161v41c0 58.667 15.667 105.5 47 140.5s76.333 52.5 135 52.5c26 0 50.833 -5.16699 74.5 -15.5s44.167 -24.166 61.5 -41.499s31.166 -37.833 41.499 -61.5s15.5 -48.5 15.5 -74.5v-321h64v-86zM199.002 772
c0 -11.333 4 -20.833 12 -28.5s17.667 -11.5 29 -11.5c12 0 22 3.83301 30 11.5s12 17.167 12 28.5s-4 20.666 -12 27.999s-18 11 -30 11c-11.333 0 -21 -3.66699 -29 -11s-12 -16.666 -12 -27.999zM317.002 772c0 -20.667 -7.83301 -37.5 -23.5 -50.5
s-33.834 -19.5 -54.501 -19.5s-38.5 6.5 -53.5 19.5s-22.5 29.833 -22.5 50.5c0 19.333 7.5 35.666 22.5 48.999s32.833 20 53.5 20s38.834 -6.66699 54.501 -20s23.5 -29.666 23.5 -48.999z" />
    <glyph glyph-name="ae" unicode="&#xe6;" horiz-adv-x="677" 
d="M250 314c-27.333 -18 -41 -38.333 -41 -61v-60c0 -13.333 6.66699 -20 20 -20c14 0 21 6.66699 21 20v121zM468 494c0 13.333 -7 20 -21 20s-21 -6.66699 -21 -20v-88h42v88zM331 38c-23.333 -25.333 -57.332 -38.0029 -101.999 -38.0029c-26.667 0 -51.667 5 -75 15
s-43.833 23.833 -61.5 41.5s-31.5 38.167 -41.5 61.5s-15 48.333 -15 75c0 21.333 2.66699 40.833 8 58.5s14.333 34.5 27 50.5s29 31.167 49 45.5s44.667 28.5 74 42.5c37.333 18 56 30.667 56 38v66c0 16 -7 24 -21 24s-21 -13.333 -21 -40v-15
c0.666992 -3.33301 1 -5.66602 1 -6.99902v-3h-162v41c0 58.667 15.667 105.5 47 140.5s76.333 52.5 135 52.5c40 0 76.333 -11.333 109 -34c32.667 22.667 69 34 109 34c26 0 50.667 -5.16699 74 -15.5s44 -24.166 62 -41.499s32.167 -37.666 42.5 -60.999
s15.5 -48.333 15.5 -75v-144h-215v-157c0 -13.333 7 -20 21 -20s21 6.66699 21 20v77h173v-77c0 -26.667 -5.16699 -51.667 -15.5 -75s-24.333 -43.833 -42 -61.5s-38.167 -31.5 -61.5 -41.5s-48.333 -15 -75 -15c-42.667 0 -81.334 12.667 -116.001 38z" />
    <glyph glyph-name="ccedilla" unicode="&#xe7;" horiz-adv-x="437" 
d="M411 193c0 -26 -5.16992 -50.834 -15.5029 -74.501s-24.166 -44.167 -41.499 -61.5s-37.666 -31.166 -60.999 -41.499s-48.333 -15.5 -75 -15.5s-51.834 5 -75.501 15s-44.167 23.833 -61.5 41.5s-31.166 38.167 -41.499 61.5s-15.5 48.333 -15.5 75v301
c0 26.667 5.16699 51.667 15.5 75s24.333 43.666 42 60.999s38.334 31.166 62.001 41.499s48.5 15.5 74.5 15.5s50.667 -5.16699 74 -15.5s43.833 -24.166 61.5 -41.499s31.667 -37.666 42 -60.999s15.5 -48.333 15.5 -75v-101h-173v101c0 13.333 -6.66699 20 -20 20
c-14 0 -21 -6.66699 -21 -20v-301c0 -13.333 7 -20 21 -20c13.333 0 20 6.66699 20 20v120h173v-120zM288.997 -98.001c0 -50.667 -28.333 -75.999 -85 -75.999c-14 0 -33 2 -57 6v76c38 0 57 8.66699 57 26c0 4 -1.16699 10.333 -3.5 19s-3.5 15.667 -3.5 21
c0 18 10 35.667 30 53h47c-16.667 -20.667 -25 -35.334 -25 -44.001c0 -2 2 -5 6 -9s8.5 -9.33301 13.5 -16s9.66699 -14.5 14 -23.5s6.5 -19.833 6.5 -32.5z" />
    <glyph glyph-name="egrave" unicode="&#xe8;" horiz-adv-x="437" 
d="M238 494c0 13.333 -6.66699 20 -20 20c-14 0 -21 -6.66699 -21 -20v-88h41v88zM411 193c0 -26 -5.16992 -50.834 -15.5029 -74.501s-24.166 -44.167 -41.499 -61.5s-37.666 -31.166 -60.999 -41.499s-48.333 -15.5 -75 -15.5s-51.834 5 -75.501 15
s-44.167 23.833 -61.5 41.5s-31.166 38.167 -41.499 61.5s-15.5 48.333 -15.5 75v301c0 26.667 5.16699 51.667 15.5 75s24.333 43.666 42 60.999s38.334 31.166 62.001 41.499s48.5 15.5 74.5 15.5s50.667 -5.16699 74 -15.5s43.833 -24.166 61.5 -41.499
s31.667 -37.666 42 -60.999s15.5 -48.333 15.5 -75v-144h-214v-157c0 -13.333 7 -20 21 -20c13.333 0 20 6.66699 20 20v77h173v-77zM260.997 819.999l22 -71h-58l-73 71h109z" />
    <glyph glyph-name="eacute" unicode="&#xe9;" horiz-adv-x="437" 
d="M238 494c0 13.333 -6.66699 20 -20 20c-14 0 -21 -6.66699 -21 -20v-88h41v88zM411 193c0 -26 -5.16992 -50.834 -15.5029 -74.501s-24.166 -44.167 -41.499 -61.5s-37.666 -31.166 -60.999 -41.499s-48.333 -15.5 -75 -15.5s-51.834 5 -75.501 15
s-44.167 23.833 -61.5 41.5s-31.166 38.167 -41.499 61.5s-15.5 48.333 -15.5 75v301c0 26.667 5.16699 51.667 15.5 75s24.333 43.666 42 60.999s38.334 31.166 62.001 41.499s48.5 15.5 74.5 15.5s50.667 -5.16699 74 -15.5s43.833 -24.166 61.5 -41.499
s31.667 -37.666 42 -60.999s15.5 -48.333 15.5 -75v-144h-214v-157c0 -13.333 7 -20 21 -20c13.333 0 20 6.66699 20 20v77h173v-77zM289.997 819.999l-72 -71h-59l23 71h108z" />
    <glyph glyph-name="ecircumflex" unicode="&#xea;" horiz-adv-x="437" 
d="M238 494c0 13.333 -6.66699 20 -20 20c-14 0 -21 -6.66699 -21 -20v-88h41v88zM411 193c0 -26 -5.16992 -50.834 -15.5029 -74.501s-24.166 -44.167 -41.499 -61.5s-37.666 -31.166 -60.999 -41.499s-48.333 -15.5 -75 -15.5s-51.834 5 -75.501 15
s-44.167 23.833 -61.5 41.5s-31.166 38.167 -41.499 61.5s-15.5 48.333 -15.5 75v301c0 26.667 5.16699 51.667 15.5 75s24.333 43.666 42 60.999s38.334 31.166 62.001 41.499s48.5 15.5 74.5 15.5s50.667 -5.16699 74 -15.5s43.833 -24.166 61.5 -41.499
s31.667 -37.666 42 -60.999s15.5 -48.333 15.5 -75v-144h-214v-157c0 -13.333 7 -20 21 -20c13.333 0 20 6.66699 20 20v77h173v-77zM342.997 737.999h-69l-56 50l-52 -50h-72l76 82h96z" />
    <glyph glyph-name="edieresis" unicode="&#xeb;" horiz-adv-x="437" 
d="M238 494c0 13.333 -6.66699 20 -20 20c-14 0 -21 -6.66699 -21 -20v-88h41v88zM411 193c0 -26 -5.16992 -50.834 -15.5029 -74.501s-24.166 -44.167 -41.499 -61.5s-37.666 -31.166 -60.999 -41.499s-48.333 -15.5 -75 -15.5s-51.834 5 -75.501 15
s-44.167 23.833 -61.5 41.5s-31.166 38.167 -41.499 61.5s-15.5 48.333 -15.5 75v301c0 26.667 5.16699 51.667 15.5 75s24.333 43.666 42 60.999s38.334 31.166 62.001 41.499s48.5 15.5 74.5 15.5s50.667 -5.16699 74 -15.5s43.833 -24.166 61.5 -41.499
s31.667 -37.666 42 -60.999s15.5 -48.333 15.5 -75v-144h-214v-157c0 -13.333 7 -20 21 -20c13.333 0 20 6.66699 20 20v77h173v-77zM194.997 774.999c0 -11.333 -5 -20.833 -15 -28.5s-23 -11.5 -39 -11.5c-15.333 0 -28.166 3.83301 -38.499 11.5s-15.5 17.167 -15.5 28.5
s5.16699 21.166 15.5 29.499s23.166 12.5 38.499 12.5c16 0 29 -4.16699 39 -12.5s15 -18.166 15 -29.499zM348.997 774.999c0 -11.333 -5.33301 -20.833 -16 -28.5s-23.334 -11.5 -38.001 -11.5c-16 0 -29.333 3.83301 -40 11.5s-16 17.167 -16 28.5
s5.33301 21.166 16 29.499s24 12.5 40 12.5c14.667 0 27.334 -4.16699 38.001 -12.5s16 -18.166 16 -29.499z" />
    <glyph glyph-name="igrave" unicode="&#xec;" horiz-adv-x="260" 
d="M210 0h-173v687h173v-687zM179 820l22 -71h-58l-73 71h109z" />
    <glyph glyph-name="iacute" unicode="&#xed;" horiz-adv-x="260" 
d="M210 0h-173v687h173v-687zM201 820l-72 -71h-59l23 71h108z" />
    <glyph glyph-name="icircumflex" unicode="&#xee;" horiz-adv-x="260" 
d="M210 0h-173v687h173v-687zM261 738h-69l-56 50l-52 -50h-72l76 82h96z" />
    <glyph glyph-name="idieresis" unicode="&#xef;" horiz-adv-x="260" 
d="M210 0h-173v687h173v-687zM113 775c0 -11.333 -5 -20.833 -15 -28.5s-23 -11.5 -39 -11.5c-15.333 0 -28.166 3.83301 -38.499 11.5s-15.5 17.167 -15.5 28.5s5.16699 21.166 15.5 29.499s23.166 12.5 38.499 12.5c16 0 29 -4.16699 39 -12.5s15 -18.166 15 -29.499z
M267 775c0 -11.333 -5.33301 -20.833 -16 -28.5s-23.334 -11.5 -38.001 -11.5c-16 0 -29.333 3.83301 -40 11.5s-16 17.167 -16 28.5s5.33301 21.166 16 29.499s24 12.5 40 12.5c14.667 0 27.334 -4.16699 38.001 -12.5s16 -18.166 16 -29.499z" />
    <glyph glyph-name="eth" unicode="&#xf0;" horiz-adv-x="437" 
d="M411 193c0 -26 -5 -50.6689 -15 -74.002s-23.833 -43.833 -41.5 -61.5s-38.167 -31.667 -61.5 -42s-48.333 -15.5 -75 -15.5c-26 0 -50.833 5 -74.5 15s-44.334 23.833 -62.001 41.5s-31.667 38.167 -42 61.5s-15.5 48.333 -15.5 75v301
c0 26.667 5.16699 51.834 15.5 75.501s24.333 44.167 42 61.5s38.334 31 62.001 41s48.5 15 74.5 15s48.333 -2.5 67 -7.5s33.334 -14.833 44.001 -29.5c-6.66699 36 -21.167 62.833 -43.5 80.5s-46.833 26.5 -73.5 26.5c-18 0 -35.833 -4.16699 -53.5 -12.5
s-32.834 -20.166 -45.501 -35.499l-46 151c26.667 15.333 52.5 26.5 77.5 33.5s48.5 10.5 70.5 10.5c30 0 57 -6 81 -18s44.5 -28.833 61.5 -50.5s30.167 -47.5 39.5 -77.5s14 -62.667 14 -98v-467zM238 493.998c0 13.333 -6.66699 20 -20 20c-14 0 -21 -6.66699 -21 -20
v-301c0 -13.333 7 -20 21 -20c13.333 0 20 6.66699 20 20v301z" />
    <glyph glyph-name="ntilde" unicode="&#xf1;" horiz-adv-x="454" 
d="M426 0l-173.002 -0.00195312v494c0 13.333 -7 20 -21 20s-21 -6.66699 -21 -20v-494h-173v687c36.667 -13.333 64.334 -20 83.001 -20c2.66699 0 8.83398 0.833008 18.501 2.5s23.167 5.16699 40.5 10.5c7.33301 2 15.333 3.66699 24 5s18 2 28 2
c26 0 50.667 -5.16699 74 -15.5s44 -24.166 62 -41.499s32.167 -37.666 42.5 -60.999s15.5 -48.333 15.5 -75v-494zM342.998 819.998c-18 -54.667 -38.999 -82 -62.999 -82c-4.66699 0 -11.167 2.33301 -19.5 7l-25.5 15l-24 15c-7.33301 4.66699 -12.333 7 -15 7
c-12 0 -21.333 -14 -28 -42h-57c14.667 54.667 33 82 55 82c4.66699 0 11.167 -2.33301 19.5 -7s17 -10 26 -16l25 -16c7.66699 -4.66699 13.167 -7 16.5 -7c15.333 0 27.666 14.667 36.999 44h53z" />
    <glyph glyph-name="ograve" unicode="&#xf2;" horiz-adv-x="437" 
d="M238 494c0 13.333 -6.66699 20 -20 20c-14 0 -21 -6.66699 -21 -20v-301c0 -13.333 7 -20 21 -20c13.333 0 20 6.66699 20 20v301zM411 193c0 -26 -5.16992 -50.834 -15.5029 -74.501s-24.166 -44.167 -41.499 -61.5s-37.666 -31.166 -60.999 -41.499
s-48.333 -15.5 -75 -15.5s-51.834 5 -75.501 15s-44.167 23.833 -61.5 41.5s-31.166 38.167 -41.499 61.5s-15.5 48.333 -15.5 75v301c0 26.667 5.16699 51.667 15.5 75s24.333 43.666 42 60.999s38.334 31.166 62.001 41.499s48.5 15.5 74.5 15.5s50.667 -5.16699 74 -15.5
s43.833 -24.166 61.5 -41.499s31.667 -37.666 42 -60.999s15.5 -48.333 15.5 -75v-301zM260.997 819.999l22 -71h-58l-73 71h109z" />
    <glyph glyph-name="oacute" unicode="&#xf3;" horiz-adv-x="437" 
d="M238 494c0 13.333 -6.66699 20 -20 20c-14 0 -21 -6.66699 -21 -20v-301c0 -13.333 7 -20 21 -20c13.333 0 20 6.66699 20 20v301zM411 193c0 -26 -5.16992 -50.834 -15.5029 -74.501s-24.166 -44.167 -41.499 -61.5s-37.666 -31.166 -60.999 -41.499
s-48.333 -15.5 -75 -15.5s-51.834 5 -75.501 15s-44.167 23.833 -61.5 41.5s-31.166 38.167 -41.499 61.5s-15.5 48.333 -15.5 75v301c0 26.667 5.16699 51.667 15.5 75s24.333 43.666 42 60.999s38.334 31.166 62.001 41.499s48.5 15.5 74.5 15.5s50.667 -5.16699 74 -15.5
s43.833 -24.166 61.5 -41.499s31.667 -37.666 42 -60.999s15.5 -48.333 15.5 -75v-301zM289.997 819.999l-72 -71h-59l23 71h108z" />
    <glyph glyph-name="ocircumflex" unicode="&#xf4;" horiz-adv-x="437" 
d="M238 494c0 13.333 -6.66699 20 -20 20c-14 0 -21 -6.66699 -21 -20v-301c0 -13.333 7 -20 21 -20c13.333 0 20 6.66699 20 20v301zM411 193c0 -26 -5.16992 -50.834 -15.5029 -74.501s-24.166 -44.167 -41.499 -61.5s-37.666 -31.166 -60.999 -41.499
s-48.333 -15.5 -75 -15.5s-51.834 5 -75.501 15s-44.167 23.833 -61.5 41.5s-31.166 38.167 -41.499 61.5s-15.5 48.333 -15.5 75v301c0 26.667 5.16699 51.667 15.5 75s24.333 43.666 42 60.999s38.334 31.166 62.001 41.499s48.5 15.5 74.5 15.5s50.667 -5.16699 74 -15.5
s43.833 -24.166 61.5 -41.499s31.667 -37.666 42 -60.999s15.5 -48.333 15.5 -75v-301zM342.997 737.999h-69l-56 50l-52 -50h-72l76 82h96z" />
    <glyph glyph-name="otilde" unicode="&#xf5;" horiz-adv-x="437" 
d="M238 494c0 13.333 -6.66699 20 -20 20c-14 0 -21 -6.66699 -21 -20v-301c0 -13.333 7 -20 21 -20c13.333 0 20 6.66699 20 20v301zM411 193c0 -26 -5.16992 -50.834 -15.5029 -74.501s-24.166 -44.167 -41.499 -61.5s-37.666 -31.166 -60.999 -41.499
s-48.333 -15.5 -75 -15.5s-51.834 5 -75.501 15s-44.167 23.833 -61.5 41.5s-31.166 38.167 -41.499 61.5s-15.5 48.333 -15.5 75v301c0 26.667 5.16699 51.667 15.5 75s24.333 43.666 42 60.999s38.334 31.166 62.001 41.499s48.5 15.5 74.5 15.5s50.667 -5.16699 74 -15.5
s43.833 -24.166 61.5 -41.499s31.667 -37.666 42 -60.999s15.5 -48.333 15.5 -75v-301zM340.997 819.999c-18 -54.667 -38.999 -82 -62.999 -82c-4.66699 0 -11.167 2.33301 -19.5 7l-25.5 15l-24 15c-7.33301 4.66699 -12.333 7 -15 7c-12 0 -21.333 -14 -28 -42h-57
c14.667 54.667 33 82 55 82c4.66699 0 11.167 -2.33301 19.5 -7s17 -10 26 -16l25 -16c7.66699 -4.66699 13.167 -7 16.5 -7c15.333 0 27.666 14.667 36.999 44h53z" />
    <glyph glyph-name="odieresis" unicode="&#xf6;" horiz-adv-x="437" 
d="M238 494c0 13.333 -6.66699 20 -20 20c-14 0 -21 -6.66699 -21 -20v-301c0 -13.333 7 -20 21 -20c13.333 0 20 6.66699 20 20v301zM411 193c0 -26 -5.16992 -50.834 -15.5029 -74.501s-24.166 -44.167 -41.499 -61.5s-37.666 -31.166 -60.999 -41.499
s-48.333 -15.5 -75 -15.5s-51.834 5 -75.501 15s-44.167 23.833 -61.5 41.5s-31.166 38.167 -41.499 61.5s-15.5 48.333 -15.5 75v301c0 26.667 5.16699 51.667 15.5 75s24.333 43.666 42 60.999s38.334 31.166 62.001 41.499s48.5 15.5 74.5 15.5s50.667 -5.16699 74 -15.5
s43.833 -24.166 61.5 -41.499s31.667 -37.666 42 -60.999s15.5 -48.333 15.5 -75v-301zM194.997 774.999c0 -11.333 -5 -20.833 -15 -28.5s-23 -11.5 -39 -11.5c-15.333 0 -28.166 3.83301 -38.499 11.5s-15.5 17.167 -15.5 28.5s5.16699 21.166 15.5 29.499
s23.166 12.5 38.499 12.5c16 0 29 -4.16699 39 -12.5s15 -18.166 15 -29.499zM348.997 774.999c0 -11.333 -5.33301 -20.833 -16 -28.5s-23.334 -11.5 -38.001 -11.5c-16 0 -29.333 3.83301 -40 11.5s-16 17.167 -16 28.5s5.33301 21.166 16 29.499s24 12.5 40 12.5
c14.667 0 27.334 -4.16699 38.001 -12.5s16 -18.166 16 -29.499z" />
    <glyph glyph-name="oslash" unicode="&#xf8;" horiz-adv-x="437" 
d="M399 694l-32.001 -78.002c29.333 -35.333 44 -76 44 -122v-301c0 -26 -5 -50.667 -15 -74s-23.833 -43.833 -41.5 -61.5s-38.167 -31.667 -61.5 -42s-48.333 -15.5 -75 -15.5c-32.667 0 -63.667 7.66699 -93 23l-13 -33h-79l34 81c-28.667 34.667 -43 75.334 -43 122.001
v301c0 26.667 5.16699 51.834 15.5 75.501s24.333 44.167 42 61.5s38.334 31 62.001 41s48.5 15 74.5 15c32.667 0 63.667 -8 93 -24l12 31h76zM237.999 493.998c0 13.333 -6.66699 20 -20 20c-14 0 -21 -6.66699 -21 -20v-108l41 102v6zM237.999 298.998l-41 -106
c0 -13.333 7 -20 21 -20c13.333 0 20 6.66699 20 20v106z" />
    <glyph glyph-name="ugrave" unicode="&#xf9;" 
d="M424 0c-32 16 -58.334 24 -79.001 24c-4.66699 0 -11.834 -1.33301 -21.501 -4l-31 -8.5c-11 -3 -22.167 -5.66699 -33.5 -8s-20.666 -3.5 -27.999 -3.5c-27.333 0 -52.666 5 -75.999 15s-43.833 23.833 -61.5 41.5s-31.5 38.167 -41.5 61.5s-15 48.333 -15 75v494h173
v-494c0 -13.333 7 -20 21 -20c13.333 0 20 6.66699 20 20v494h173v-687zM276.999 820l22 -71h-58l-73 71h109z" />
    <glyph glyph-name="uacute" unicode="&#xfa;" 
d="M424 0c-32 16 -58.334 24 -79.001 24c-4.66699 0 -11.834 -1.33301 -21.501 -4l-31 -8.5c-11 -3 -22.167 -5.66699 -33.5 -8s-20.666 -3.5 -27.999 -3.5c-27.333 0 -52.666 5 -75.999 15s-43.833 23.833 -61.5 41.5s-31.5 38.167 -41.5 61.5s-15 48.333 -15 75v494h173
v-494c0 -13.333 7 -20 21 -20c13.333 0 20 6.66699 20 20v494h173v-687zM304.999 820l-72 -71h-59l23 71h108z" />
    <glyph glyph-name="ucircumflex" unicode="&#xfb;" 
d="M424 0c-32 16 -58.334 24 -79.001 24c-4.66699 0 -11.834 -1.33301 -21.501 -4l-31 -8.5c-11 -3 -22.167 -5.66699 -33.5 -8s-20.666 -3.5 -27.999 -3.5c-27.333 0 -52.666 5 -75.999 15s-43.833 23.833 -61.5 41.5s-31.5 38.167 -41.5 61.5s-15 48.333 -15 75v494h173
v-494c0 -13.333 7 -20 21 -20c13.333 0 20 6.66699 20 20v494h173v-687zM357.999 738h-69l-56 50l-52 -50h-72l76 82h96z" />
    <glyph glyph-name="udieresis" unicode="&#xfc;" 
d="M424 0c-32 16 -58.334 24 -79.001 24c-4.66699 0 -11.834 -1.33301 -21.501 -4l-31 -8.5c-11 -3 -22.167 -5.66699 -33.5 -8s-20.666 -3.5 -27.999 -3.5c-27.333 0 -52.666 5 -75.999 15s-43.833 23.833 -61.5 41.5s-31.5 38.167 -41.5 61.5s-15 48.333 -15 75v494h173
v-494c0 -13.333 7 -20 21 -20c13.333 0 20 6.66699 20 20v494h173v-687zM210.999 775c0 -11.333 -5 -20.833 -15 -28.5s-23 -11.5 -39 -11.5c-15.333 0 -28.166 3.83301 -38.499 11.5s-15.5 17.167 -15.5 28.5s5.16699 21.166 15.5 29.499s23.166 12.5 38.499 12.5
c16 0 29 -4.16699 39 -12.5s15 -18.166 15 -29.499zM364.999 775c0 -11.333 -5.33301 -20.833 -16 -28.5s-23.334 -11.5 -38.001 -11.5c-16 0 -29.333 3.83301 -40 11.5s-16 17.167 -16 28.5s5.33301 21.166 16 29.499s24 12.5 40 12.5
c14.667 0 27.334 -4.16699 38.001 -12.5s16 -18.166 16 -29.499z" />
    <glyph glyph-name="yacute" unicode="&#xfd;" horiz-adv-x="427" 
d="M417 687l-164 -875h-172l48 229l-115 646h172l30 -146l29 146h172zM285 820l-72 -71h-59l23 71h108z" />
    <glyph glyph-name="thorn" unicode="&#xfe;" horiz-adv-x="437" 
d="M411 193c0 -27.333 -4.99902 -52.668 -14.999 -76.001s-24 -43.666 -42 -60.999s-39.167 -31 -63.5 -41s-50.5 -15 -78.5 -15h-15v-188h-173v1061h173v-187c3.33301 0.666992 6.66602 1 9.99902 1h11c26.667 0 51.667 -5.16699 75 -15.5s43.833 -24.333 61.5 -42
s31.5 -38.167 41.5 -61.5s15 -48 15 -74v-301zM238.001 493.998c0 13.333 -6.66699 20 -20 20c-12.667 0 -19.667 -5.66699 -21 -17v-304c0 -14 7 -21 21 -21c13.333 0 20 7 20 21v301z" />
    <glyph glyph-name="ydieresis" unicode="&#xff;" horiz-adv-x="427" 
d="M417 687l-164 -875h-172l48 229l-115 646h172l30 -146l29 146h172zM191 775c0 -11.333 -5 -20.833 -15 -28.5s-23 -11.5 -39 -11.5c-15.333 0 -28.166 3.83301 -38.499 11.5s-15.5 17.167 -15.5 28.5s5.16699 21.166 15.5 29.499s23.166 12.5 38.499 12.5
c16 0 29 -4.16699 39 -12.5s15 -18.166 15 -29.499zM345 775c0 -11.333 -5.33301 -20.833 -16 -28.5s-23.334 -11.5 -38.001 -11.5c-16 0 -29.333 3.83301 -40 11.5s-16 17.167 -16 28.5s5.33301 21.166 16 29.499s24 12.5 40 12.5c14.667 0 27.334 -4.16699 38.001 -12.5
s16 -18.166 16 -29.499z" />
    <glyph glyph-name="dotlessi" unicode="&#x131;" horiz-adv-x="260" 
d="M210 0h-173v687h173v-687z" />
    <glyph glyph-name="OE" unicode="&#x152;" horiz-adv-x="640" 
d="M607 0l-357 1c-4 -0.666992 -8 -1 -12 -1h-12c-26.667 0 -51.667 5 -75 15s-43.833 23.833 -61.5 41.5s-31.5 38.167 -41.5 61.5s-15 48.333 -15 75v470c0 27.333 5.16699 52.833 15.5 76.5s24.333 44.167 42 61.5s38.167 31 61.5 41s48 15 74 15
c4 0 8 -0.166992 12 -0.5s8 -0.833008 12 -1.5v2h357v-173h-184v-169h97v-173h-97v-169h184v-173zM246 663c0 14 -6.66699 21 -20 21s-20 -7 -20 -21v-470c0 -13.333 6.66699 -20 20 -20s20 6.66699 20 20v470z" />
    <glyph glyph-name="oe" unicode="&#x153;" horiz-adv-x="664" 
d="M631 193c0 -26.667 -5.16699 -51.667 -15.5 -75s-24.333 -43.833 -42 -61.5s-38.167 -31.5 -61.5 -41.5s-48.333 -15 -75 -15c-40.667 -0 -76.334 10.333 -107.001 31c-30.667 -20.667 -66 -31 -106 -31c-27.333 0 -52.666 5 -75.999 15s-43.666 23.833 -60.999 41.5
s-31 38.167 -41 61.5s-15 48.333 -15 75v301c0 26 5 50.833 15 74.5s23.667 44.167 41 61.5s37.666 31.166 60.999 41.499s48.666 15.5 75.999 15.5c40 0 75.333 -10.667 106 -32c31.333 21.333 67 32 107 32c26.667 0 51.667 -5.16699 75 -15.5
s43.833 -24.166 61.5 -41.499s31.667 -37.833 42 -61.5s15.5 -48.5 15.5 -74.5v-144h-214v-161c0.666992 -10.667 7.33398 -16 20.001 -16c14 0 21 6.66699 21 20v77h173v-77zM224 514c-14 0 -21.001 -6.66699 -21.001 -20v-301c0 -13.333 7 -20 21 -20
c12.667 0 19.334 5.33301 20.001 16v305c0 13.333 -6.66699 20 -20 20zM457.999 494c0 13.333 -7 20 -21 20c-13.333 0 -20 -6.66699 -20 -20v-88h41v88z" />
    <glyph glyph-name="Scaron" unicode="&#x160;" 
d="M424 193c0 -26 -5 -50.666 -15 -73.999s-23.833 -43.833 -41.5 -61.5s-38.167 -31.667 -61.5 -42s-48.333 -15.5 -75 -15.5c-27.333 0 -52.666 5 -75.999 15s-43.833 23.833 -61.5 41.5s-31.5 38.167 -41.5 61.5s-15 48.333 -15 75v95h173v-95c0 -13.333 7 -20 21 -20
c13.333 0 20 6.66699 20 20c0 63.333 -18.667 114.333 -56 153l-102 98c-37.333 51.333 -56 124.333 -56 219c0 27.333 5.16699 52.833 15.5 76.5s24.333 44.167 42 61.5s38.167 31 61.5 41s48.333 15 75 15c26 0 50.833 -5.16699 74.5 -15.5s44.167 -24.166 61.5 -41.499
s31.166 -37.833 41.499 -61.5s15.5 -48.834 15.5 -75.501v-95h-173v95c0 14 -6.66699 21 -20 21c-14 0 -21 -7 -21 -21c0 -30 4.66699 -57 14 -81s21.5 -46.333 36.5 -67s32 -40.334 51 -59.001l56.5 -56c37.333 -52.667 56 -121.667 56 -207zM108 989.001h69l57 -49l52 49
h72l-77 -82h-96z" />
    <glyph glyph-name="scaron" unicode="&#x161;" horiz-adv-x="438" 
d="M412 193c0 -26 -5 -50.668 -15 -74.001s-23.833 -43.833 -41.5 -61.5s-38.167 -31.667 -61.5 -42s-48.333 -15.5 -75 -15.5s-51.667 5 -75 15s-43.833 23.833 -61.5 41.5s-31.5 38.167 -41.5 61.5s-15 48.333 -15 75v57h173v-57c0 -13.333 6.66699 -20 20 -20
c14 0 21 6.66699 21 20c0 18 -5.16699 34.667 -15.5 50s-23.166 29.5 -38.499 42.5s-32.5 25.333 -51.5 37s-36.833 23.167 -53.5 34.5c-36.667 34.667 -55 83 -55 145c0 26.667 5.16699 51.667 15.5 75s24.333 43.833 42 61.5s38.167 31.5 61.5 41.5s48 15 74 15
s50.833 -5.16699 74.5 -15.5s44.167 -24.166 61.5 -41.499s31.166 -37.833 41.499 -61.5s15.5 -48.5 15.5 -74.5v-58h-172v58c0 13.333 -7 20 -21 20c-13.333 0 -20 -6.66699 -20 -20c0 -42.667 18.333 -76 55 -100l103 -62c36.667 -32.667 55 -81.667 55 -147zM94 818.999
h69l56 -49l52 49h73l-77 -82h-96z" />
    <glyph glyph-name="Ydieresis" unicode="&#x178;" horiz-adv-x="457" 
d="M315 400v-400h-173v397l-140 460h178l48 -155l49 155h177zM206 945c0 -11.333 -5 -20.833 -15 -28.5s-23 -11.5 -39 -11.5c-15.333 0 -28.166 3.83301 -38.499 11.5s-15.5 17.167 -15.5 28.5s5.16699 21.166 15.5 29.499s23.166 12.5 38.499 12.5
c16 0 29 -4.16699 39 -12.5s15 -18.166 15 -29.499zM360 945c0 -11.333 -5.33301 -20.833 -16 -28.5s-23.334 -11.5 -38.001 -11.5c-16 0 -29.333 3.83301 -40 11.5s-16 17.167 -16 28.5s5.33301 21.166 16 29.499s24 12.5 40 12.5c14.667 0 27.334 -4.16699 38.001 -12.5
s16 -18.166 16 -29.499z" />
    <glyph glyph-name="Zcaron" unicode="&#x17d;" horiz-adv-x="432" 
d="M410 0h-386v116l182 568h-182v173h386v-117l-183 -567h183v-173zM90 989h69l57 -49l52 49h72l-77 -82h-96z" />
    <glyph glyph-name="zcaron" unicode="&#x17e;" horiz-adv-x="446" 
d="M418 0h-386v120l179 394h-179v173h386v-120l-180 -394h180v-173zM98 819h69l57 -49l52 49h72l-77 -82h-96z" />
    <glyph glyph-name="circumflex" unicode="&#x2c6;" horiz-adv-x="375" 
d="M324 738h-69l-56 50l-52 -50h-72l76 82h96z" />
    <glyph glyph-name="caron" unicode="&#x2c7;" horiz-adv-x="375" 
d="M73 819h69l57 -49l52 49h72l-77 -82h-96z" />
    <glyph glyph-name="ring" unicode="&#x2da;" horiz-adv-x="349" 
d="M184 772c0 -11.333 4 -20.833 12 -28.5s17.667 -11.5 29 -11.5c12 0 22 3.83301 30 11.5s12 17.167 12 28.5s-4 20.666 -12 27.999s-18 11 -30 11c-11.333 0 -21 -3.66699 -29 -11s-12 -16.666 -12 -27.999zM302 772c0 -20.667 -7.83301 -37.5 -23.5 -50.5
s-33.834 -19.5 -54.501 -19.5s-38.5 6.5 -53.5 19.5s-22.5 29.833 -22.5 50.5c0 19.333 7.5 35.666 22.5 48.999s32.833 20 53.5 20s38.834 -6.66699 54.501 -20s23.5 -29.666 23.5 -48.999z" />
    <glyph glyph-name="tilde" unicode="&#x2dc;" horiz-adv-x="320" 
d="M342 820c-18 -54.667 -38.999 -82 -62.999 -82c-4.66699 0 -11.167 2.33301 -19.5 7l-25.5 15l-24 15c-7.33301 4.66699 -12.333 7 -15 7c-12 0 -21.333 -14 -28 -42h-57c14.667 54.667 33 82 55 82c4.66699 0 11.167 -2.33301 19.5 -7s17 -10 26 -16l25 -16
c7.66699 -4.66699 13.167 -7 16.5 -7c15.333 0 27.666 14.667 36.999 44h53z" />
    <glyph glyph-name="quoteleft" unicode="&#x2018;" horiz-adv-x="203" 
d="M38 765c0 20 2.49805 39.001 7.49805 57.001s12.5 34 22.5 48s22.333 25.5 37 34.5s31.334 14.833 50.001 17.5c-12.667 -12.667 -19 -27.334 -19 -44.001c0 -6 2.5 -15.167 7.5 -27.5l16 -39.5l16 -40.5c5 -13 7.5 -23.167 7.5 -30.5c0 -20 -7.16699 -38 -21.5 -54
s-32.166 -24 -53.499 -24c-46.667 0 -70 34.333 -70 103z" />
    <glyph glyph-name="quoteright" unicode="&#x2019;" horiz-adv-x="190" 
d="M163 819c0 -20 -2.49805 -39.002 -7.49805 -57.002s-12.5 -34 -22.5 -48s-22.333 -25.5 -37 -34.5s-31.334 -14.833 -50.001 -17.5c13.333 14.667 20 29.334 20 44.001c0 6 -2.5 15.167 -7.5 27.5l-16.5 39c-6 13.667 -11.5 27 -16.5 40s-7.5 23.5 -7.5 31.5
c0 20.667 7.16699 38.834 21.5 54.501s32.166 23.5 53.499 23.5c46.667 0 70 -34.333 70 -103z" />
    <glyph glyph-name="quotesinglbase" unicode="&#x201a;" horiz-adv-x="190" 
d="M163 122c0 -20 -2.49805 -39 -7.49805 -57s-12.5 -34 -22.5 -48s-22.333 -25.5 -37 -34.5s-31.334 -14.833 -50.001 -17.5c13.333 13.333 20 28 20 44c0 6 -2.5 15.167 -7.5 27.5l-16.5 39c-6 13.667 -11.5 27 -16.5 40s-7.5 23.5 -7.5 31.5c0 20 7.16699 38 21.5 54
s32.166 24 53.499 24c46.667 0 70 -34.333 70 -103z" />
    <glyph glyph-name="quotedblleft" unicode="&#x201c;" horiz-adv-x="314" 
d="M155 766c0 44 10.167 80.335 30.5 109.002s48.833 45 85.5 49c-12.667 -12.667 -19 -27.334 -19 -44.001c0 -6 2.5 -15 7.5 -27l16 -38.5c5.66699 -13.667 11 -27.167 16 -40.5s7.5 -24 7.5 -32c0 -20.667 -7 -38.834 -21 -54.501s-31.667 -23.5 -53 -23.5
c-46.667 0 -70 34 -70 102zM2 766.002c0 44 10.167 80.334 30.5 109.001s49.166 45 86.499 49c-13.333 -13.333 -20 -28 -20 -44c0 -6 2.5 -15 7.5 -27l16.5 -38.5c6 -13.667 11.5 -27.167 16.5 -40.5s7.5 -24 7.5 -32c0 -20.667 -7.16699 -38.834 -21.5 -54.501
s-32.166 -23.5 -53.499 -23.5c-46.667 0 -70 34 -70 102z" />
    <glyph glyph-name="quotedblright" unicode="&#x201d;" horiz-adv-x="342" 
d="M166 819c0 -43.333 -10.5 -79.332 -31.5 -107.999s-49.167 -45.334 -84.5 -50.001c12 12.667 18 27.334 18 44.001c0 6 -2.5 15.167 -7.5 27.5l-16.5 39c-6 13.667 -11.5 27 -16.5 40s-7.5 23.5 -7.5 31.5c0 21.333 7.33301 39.666 22 54.999s32.667 23 54 23
c46.667 0 70 -34 70 -102zM319 819.001c0 -42.667 -10.5 -78.5 -31.5 -107.5s-49.5 -45.833 -85.5 -50.5c12 12.667 18 27.334 18 44.001c0 6 -2.5 15.167 -7.5 27.5l-16 39l-16 40c-5 13 -7.5 23.5 -7.5 31.5c0 21.333 7.33301 39.666 22 54.999s32.667 23 54 23
c46.667 0 70 -34 70 -102z" />
    <glyph glyph-name="quotedblbase" unicode="&#x201e;" horiz-adv-x="342" 
d="M166 122c0 -43.333 -10.5 -79.333 -31.5 -108s-49.167 -45.334 -84.5 -50.001c12 12.667 18 27.334 18 44.001c0 6 -2.5 15 -7.5 27l-16.5 39c-6 14 -11.5 27.5 -16.5 40.5s-7.5 23.5 -7.5 31.5c0 10 2 19.833 6 29.5s9.33301 18 16 25s14.667 12.667 24 17
s19.333 6.5 30 6.5c46.667 0 70 -34 70 -102zM319 122c0 -42.667 -10.5 -78.501 -31.5 -107.501s-49.5 -45.833 -85.5 -50.5c12 12.667 18 27.334 18 44.001c0 6 -2.5 15 -7.5 27l-16 39l-16 40.5c-5 13 -7.5 23.5 -7.5 31.5c0 10 2 19.833 6 29.5s9.33301 18 16 25
s14.667 12.667 24 17s19.333 6.5 30 6.5c46.667 0 70 -34 70 -102z" />
    <glyph glyph-name="bullet" unicode="&#x2022;" horiz-adv-x="666" 
d="M652 510l-168 -151l55 -218l-194 114l-191 -121l48 221l-174 143l225 23l84 210l90 -208z" />
    <glyph glyph-name="ellipsis" unicode="&#x2026;" horiz-adv-x="1512" 
d="M418 97c0 -26 -7.5 -48.668 -22.5 -68.001s-35.5 -29 -61.5 -29c-12.667 0 -24.5 2.66699 -35.5 8s-20.5 12.5 -28.5 21.5s-14.167 19.333 -18.5 31s-6.5 23.834 -6.5 36.501s2.16699 25 6.5 37s10.5 22.333 18.5 31s17.5 15.667 28.5 21s22.833 8 35.5 8
c26 0 46.5 -9.5 61.5 -28.5s22.5 -41.833 22.5 -68.5zM846 96.999c0 -26 -7.5 -48.668 -22.5 -68.001s-35.167 -29 -60.5 -29c-13.333 0 -25.5 2.66699 -36.5 8s-20.5 12.5 -28.5 21.5s-14.167 19.333 -18.5 31s-6.5 23.834 -6.5 36.501c0 26 8.5 48.667 25.5 68
s38.5 29 64.5 29c25.333 0 45.5 -9.5 60.5 -28.5s22.5 -41.833 22.5 -68.5zM1275 96.998c0 -26 -7.66699 -48.668 -23 -68.001s-35.666 -29 -60.999 -29c-12.667 0 -24.5 2.66699 -35.5 8s-20.5 12.5 -28.5 21.5s-14.167 19.333 -18.5 31s-6.5 23.834 -6.5 36.501
s2.16699 25 6.5 37s10.5 22.333 18.5 31s17.5 15.667 28.5 21s22.833 8 35.5 8c25.333 0 45.666 -9.5 60.999 -28.5s23 -41.833 23 -68.5z" />
    <glyph glyph-name="guilsinglleft" unicode="&#x2039;" horiz-adv-x="260" 
d="M107 383l116 -54v-68l-177 87v67l177 91v-70z" />
    <glyph glyph-name="guilsinglright" unicode="&#x203a;" horiz-adv-x="260" 
d="M162 385l-116 53v68l177 -87v-66l-177 -92v70z" />
    <glyph glyph-name="Euro" unicode="&#x20ac;" 
d="M424 193c0 -26 -5.00098 -50.667 -15.001 -74s-23.833 -43.833 -41.5 -61.5s-38.167 -31.667 -61.5 -42s-48.333 -15.5 -75 -15.5c-27.333 0 -52.666 5 -75.999 15s-43.833 23.833 -61.5 41.5s-31.5 38.167 -41.5 61.5s-15 48.333 -15 75v158h-27v86h27v66h-27v86h27v74
c0 27.333 5.16699 52.833 15.5 76.5s24.333 44.167 42 61.5s38.167 31 61.5 41s48.333 15 75 15h169l-51 -173h-118c-14 0 -21 -7 -21 -21v-74h112l-25 -86h-87v-66h68l-25 -86h-43v-158c0 -13.333 7 -20 21 -20c13.333 0 20 6.66699 20 20v92h173v-92z" />
    <glyph glyph-name="trademark" unicode="&#x2122;" horiz-adv-x="634" 
d="M195 589v-252h-66v252h-80v61h224v-61h-78zM506 510l-68 -174l-74 180v-178h-62v313h75l60 -162l59 162h74v-313h-64v172z" />
    <glyph glyph-name="alt.s" unicode="&#xe000;" horiz-adv-x="377" 
d="M-24 250l138.999 320.001c-17.333 38.667 -26 73 -26 103c0 30.667 8.33301 56 25 76s39 30 67 30s51.5 -8.16699 70.5 -24.5s28.5 -39.5 28.5 -69.5c0 -34 -12.333 -72.333 -37 -115l132 -320c12 -29.333 18 -58 18 -86c0 -24 -4.33301 -46 -13 -66
s-20.5 -37.5 -35.5 -52.5s-32.5 -26.667 -52.5 -35s-41.333 -12.5 -64 -12.5c-16 0 -31.167 2.16699 -45.5 6.5s-29.166 10.5 -44.499 18.5l-36 19l77 151c4.66699 -6.66699 10.667 -10 18 -10c11.333 0 17 7.33301 17 22c0 1.33301 -0.666992 4.66602 -2 9.99902l-27 99
l-145 -314z" />
    <glyph glyph-name="nonmarkingreturn" horiz-adv-x="227" 
 />
    <glyph glyph-name=".null" horiz-adv-x="0" 
 />
    <glyph glyph-name=".ttfautohint" horiz-adv-x="0" 
d="M0 0z" />
    </font>
</defs>
</svg>
